<?xml version="1.0" encoding="UTF-8" standalone="no"?>
<!-- Created with Inkscape (http://www.inkscape.org/) -->

<svg
   version="1.1"
   id="svg1"
   width="1157.12"
   height="817.91998"
   viewBox="0 0 1157.12 817.91998"
   sodipodi:docname="template.svg"
   xml:space="preserve"
   inkscape:version="1.4 (e7c3feb100, 2024-10-09)"
   xmlns:inkscape="http://www.inkscape.org/namespaces/inkscape"
   xmlns:sodipodi="http://sodipodi.sourceforge.net/DTD/sodipodi-0.dtd"
   xmlns:xlink="http://www.w3.org/1999/xlink"
   xmlns="http://www.w3.org/2000/svg"
   xmlns:svg="http://www.w3.org/2000/svg"><defs
     id="defs1"><rect
       x="663.29739"
       y="446.49524"
       width="429.50264"
       height="99.025847"
       id="rect4" /><linearGradient
       id="linearGradient5"
       inkscape:collect="always"><stop
         style="stop-color:#ffd744;stop-opacity:1;"
         offset="0.18010467"
         id="stop5" /><stop
         style="stop-color:#a7860f;stop-opacity:1;"
         offset="0.37019777"
         id="stop9" /><stop
         style="stop-color:#edc124;stop-opacity:1;"
         offset="0.4031781"
         id="stop10" /><stop
         style="stop-color:#f9cb1d;stop-opacity:1;"
         offset="0.72615474"
         id="stop11" /><stop
         style="stop-color:#866b00;stop-opacity:1;"
         offset="0.81830728"
         id="stop6" /></linearGradient><linearGradient
       id="linearGradient3"
       inkscape:collect="always"><stop
         style="stop-color:#ffffff;stop-opacity:1;"
         offset="0.26113567"
         id="stop3" /><stop
         style="stop-color:#7b7b7b;stop-opacity:1;"
         offset="0.5"
         id="stop7" /><stop
         style="stop-color:#d7d7d7;stop-opacity:1;"
         offset="0.59397757"
         id="stop8" /><stop
         style="stop-color:#3e3e3e;stop-opacity:1;"
         offset="0.86606395"
         id="stop4" /></linearGradient><clipPath
       clipPathUnits="userSpaceOnUse"
       id="clipPath30"><path
         id="path30"
         d="M 585.43999,817.92 H 1157.12 V 2.0448e-5 H 585.43999 Z"
         style="fill:#22b5f0;fill-opacity:1;fill-rule:evenodd;stroke:#22b5f0;stroke-width:1.33333;stroke-linecap:butt;stroke-linejoin:miter;stroke-miterlimit:10;stroke-dasharray:none;stroke-opacity:1" /></clipPath><clipPath
       clipPathUnits="userSpaceOnUse"
       id="clipPath31"><path
         id="path31"
         d="M 0,817.92 H 571.67999 V 2.0448e-5 H 0 Z"
         style="fill:#22b5f0;fill-opacity:1;fill-rule:evenodd;stroke:#22b5f0;stroke-width:1.33333;stroke-linecap:butt;stroke-linejoin:miter;stroke-miterlimit:10;stroke-dasharray:none;stroke-opacity:1" /></clipPath><clipPath
       clipPathUnits="userSpaceOnUse"
       id="clipPath4"><path
         id="path4"
         style="fill:#fbff0c;fill-opacity:1;stroke:none;stroke-width:1.05833"
         d="m 195.80327,88.530769 c -8.20287,-0.222703 -18.1441,-9.557086 -19.36367,-18.054056 3.45765,-10.18077 13.31581,-16.323029 19.17658,-16.37026 9.04137,-0.07287 16.24333,7.171542 16.74444,15.154182 0.50111,7.982638 -4.24213,19.604482 -16.55735,19.270134 z M 141.0097,98.633558 c 15.0846,-0.352931 20.40653,-7.956823 27.87621,-17.586336 7.56323,11.137329 16.1622,18.212269 28.99875,18.334689 13.80494,0.131648 25.06486,-15.812641 24.88279,-28.531021 -0.18207,-12.718381 -8.81947,-27.572515 -26.47305,-27.876217 -13.99491,-0.240758 -21.5671,11.447105 -26.56659,17.212162 -4.06405,-6.395707 -15.17885,-17.27694 -27.40849,-17.77342 -12.22964,-0.49648 -26.74138,12.9619 -27.4085,26.005321 -0.6671,13.043422 9.87504,30.594406 26.09888,30.214822 z M 126.13615,68.51228 c 0.50111,-7.982638 7.70307,-15.227046 16.74444,-15.154183 5.86077,0.04723 15.71894,6.189491 19.17658,16.370261 -1.21957,8.496969 -11.1608,17.831353 -19.36367,18.054055 -12.31522,0.334349 -17.05846,-11.287495 -16.55735,-19.270133 z" /></clipPath><linearGradient
       inkscape:collect="always"
       xlink:href="#linearGradient3"
       id="linearGradient4"
       x1="833.52478"
       y1="166.84106"
       x2="932.91675"
       y2="597.35522"
       gradientUnits="userSpaceOnUse" /><linearGradient
       inkscape:collect="always"
       xlink:href="#linearGradient5"
       id="linearGradient6"
       x1="146.88411"
       y1="21.610775"
       x2="190.7664"
       y2="120.17204"
       gradientUnits="userSpaceOnUse" /></defs><sodipodi:namedview
     id="namedview1"
     pagecolor="#ffffff"
     bordercolor="#000000"
     borderopacity="0.25"
     inkscape:showpageshadow="2"
     inkscape:pageopacity="0.0"
     inkscape:pagecheckerboard="0"
     inkscape:deskcolor="#d1d1d1"
     inkscape:zoom="0.85331257"
     inkscape:cx="523.84087"
     inkscape:cy="404.30671"
     inkscape:window-width="1920"
     inkscape:window-height="1131"
     inkscape:window-x="0"
     inkscape:window-y="0"
     inkscape:window-maximized="1"
     inkscape:current-layer="g1"><inkscape:page
       x="0"
       y="0"
       inkscape:label="1"
       id="page1"
       width="1157.12"
       height="817.91998"
       margin="0"
       bleed="0" /></sodipodi:namedview><g
     id="g1"
     inkscape:groupmode="layer"
     inkscape:label="1"><image
       width="825.04584"
       height="825.04584"
       preserveAspectRatio="none"
       style="image-rendering:optimizeQuality;opacity:1"
       xlink:href="serpentipede.png"
       id="image1-6"
       x="-127.23689"
       y="-6.9822221"
       clip-path="url(#clipPath31)" /><path
       id="path16"
       d="m 4287.6,0 h 103.199 V 6134.4 H 4287.6 Z"
       style="fill:#22b5f0;fill-opacity:1;fill-rule:evenodd;stroke:#22b5f0;stroke-width:10;stroke-linecap:butt;stroke-linejoin:miter;stroke-miterlimit:10;stroke-dasharray:none;stroke-opacity:1"
       transform="matrix(0.13333333,0,0,-0.13333333,0,817.92)" /><path
       id="path17"
       d="m 4287.6,90 h 103.199 V 6044.4 H 4287.6 Z"
       style="fill:#000000;fill-opacity:1;fill-rule:evenodd;stroke:#000000;stroke-width:10;stroke-linecap:butt;stroke-linejoin:miter;stroke-miterlimit:10;stroke-dasharray:none;stroke-opacity:1"
       transform="matrix(0.13333333,0,0,-0.13333333,0,817.92)" /><image
       width="828.83789"
       height="828.83789"
       preserveAspectRatio="none"
       xlink:href="minigunner.png"
       id="image1"
       x="504.08798"
       y="-6.4956417"
       style="opacity:1"
       clip-path="url(#clipPath30)" /><text
       xml:space="preserve"
       style="text-align:start;writing-mode:lr-tb;direction:ltr;text-anchor:start;fill:#ffffff;fill-opacity:1;stroke:none;stroke-width:0.1;stroke-opacity:1"
       x="343.88354"
       y="-573.65881"
       id="text1"
       transform="rotate(90)"><tspan
         sodipodi:role="line"
         id="tspan1"
         x="343.88354"
         y="-573.65881">__SPINE_TITLE__</tspan></text><rect
       style="opacity:1;fill:#ffffff;fill-opacity:1;stroke:none;stroke-width:0.1;stroke-opacity:1"
       id="rect1"
       width="379.91611"
       height="247.25345"
       x="96.99765"
       y="448.37463" /><text
       xml:space="preserve"
       style="font-style:normal;font-variant:normal;font-weight:normal;font-stretch:normal;font-size:14.6667px;font-family:sans-serif;-inkscape-font-specification:'sans-serif, Normal';font-variant-ligatures:normal;font-variant-caps:normal;font-variant-numeric:normal;font-variant-east-asian:normal;text-align:start;writing-mode:lr-tb;direction:ltr;text-anchor:start;white-space:pre;inline-size:333.15;display:inline;opacity:1;fill:#000000;fill-opacity:1;stroke:none;stroke-width:0.1;stroke-opacity:1"
       x="144.91855"
       y="491.40564"
       id="text2"
       transform="translate(-28.665317,-23.443095)"><tspan
         x="144.91855"
         y="491.40564"
         id="tspan3">__BACK_TEXT__</tspan></text><g
       id="g11"><path
         style="fill:url(#linearGradient4);fill-opacity:1;stroke:none;stroke-width:0.0358485;stroke-dasharray:none;stroke-opacity:1"
         d="m 662.45551,439.01715 c -0.33174,-0.33197 -0.11213,-0.71029 0.53074,-0.91433 1.85173,-0.58773 4.82779,-4.225 5.55674,-6.7914 l 0.51811,-1.82402 0.4294,-49.04398 0.4294,-49.04401 -0.67475,-0.78554 c -0.37115,-0.43203 -0.98205,-1.35016 -1.35756,-2.04026 -0.37552,-0.6901 -1.06811,-1.72149 -1.53907,-2.29202 l -0.85627,-1.03735 0.28905,-0.24657 c 0.15898,-0.13564 4.64465,-0.12683 9.96818,0.0194 7.04787,0.19366 57.5859,0.76727 61.3472,0.69629 0.22255,-0.009 0.6121,0.51664 0.86564,1.15743 0.25357,0.64083 0.6622,1.40708 0.90809,1.7028 1.17563,1.41415 5.94345,11.78699 6.4245,13.97715 0.15075,0.6864 0.47908,1.57302 0.72964,1.97024 0.25054,0.39723 0.5717,1.28686 0.71369,1.97694 0.142,0.69007 0.56114,1.85319 0.9314,2.58473 1.44259,2.84999 0.88229,3.04201 -2.01692,0.69128 -2.50176,-2.02849 -5.76818,-4.3506 -9.34741,-6.64514 l -2.53769,-1.62686 -2.12262,-0.55604 -2.12263,-0.55602 -5.91503,-0.34655 c -3.25325,-0.19057 -9.78666,-0.34352 -14.51868,-0.33986 l -8.60366,0.01 -2.50939,0.35613 c -1.38017,0.19586 -3.43575,0.45482 -4.56792,0.57553 l -2.05852,0.21943 -0.34529,0.41604 -0.34528,0.41605 -0.0526,7.99384 -0.0526,7.99382 0.31453,0.31453 0.31455,0.31455 8.14799,0.37275 8.14799,0.37276 15.5031,-0.0787 c 24.77527,-0.12587 28.28159,-0.0969 37.37077,0.30926 l 8.60364,0.38443 2.07994,0.93041 c 4.56462,2.04192 8.84406,6.74619 10.31528,11.3393 0.1597,0.49854 0.53724,1.58203 0.839,2.4078 3.41383,9.34159 1.53965,14.59176 -7.92699,22.20581 l -3.33553,2.6828 v 0.68321 0.68318 l 3.13672,3.64543 c 1.72523,2.00496 4.74995,5.52029 6.72161,7.81184 3.66592,4.26065 5.52325,6.46971 7.66557,9.11715 l 1.21278,1.49875 -0.22643,-12.00927 c -0.12449,-6.60513 -0.28581,-14.10644 -0.35845,-16.6696 -0.0727,-2.56319 -0.15351,-10.04275 -0.17979,-16.62126 l -0.0477,-11.96092 -1.27164,-1.16478 c -0.6994,-0.64063 -2.71588,-2.01966 -4.48105,-3.06454 -1.76521,-1.04486 -3.20944,-1.99435 -3.20942,-2.10995 10e-6,-0.11558 28.19049,-0.19829 62.64542,-0.18374 l 62.64546,0.0264 2.84694,0.80497 c 2.88531,0.81585 3.50915,1.08559 7.79465,3.36994 l 2.39686,1.27748 1.86017,-0.70687 c 22.26567,-8.46029 42.9235,7.46435 49.61972,18.91748 l 0.66145,1.1313 0.74928,-0.35918 c 0.41205,-0.19757 1.63657,-1.42344 2.72094,-2.72416 11.67856,-14.0083 19.09182,-18.13419 30.29184,-19.1563 l 1.0758,-0.0981 0.093,-14.39379 0.094,-14.3938 -1.1693,-0.98579 c -0.643,-0.54219 -1.7335,-1.21349 -2.4237,-1.49178 -4.15634,-1.67605 -8.71959,-4.28494 -8.39971,-4.80228 l 0.18049,-0.2923 16.42832,-0.0194 16.4285,-0.0194 0.3975,0.47903 c 0.2186,0.26348 0.6508,1.56994 0.9598,2.90327 0.3091,1.33332 0.785,3.01598 1.0574,3.73925 0.272,0.72327 0.8335,2.52491 1.2474,4.00366 0.4139,1.47876 0.927,3.17262 1.1401,3.76411 0.2132,0.59149 0.5998,1.88205 0.8593,2.86789 0.2593,0.98583 0.9,3.16363 1.424,4.83955 0.5238,1.67594 1.1745,3.85374 1.4458,4.83957 0.2714,0.98584 0.7481,2.59903 1.0595,3.58487 0.3115,0.98583 0.8782,2.841 1.2592,4.12258 1.8894,6.35298 2.2168,7.42837 2.5661,8.42443 0.2077,0.59148 0.581,1.88202 0.8295,2.86787 0.4834,1.91614 2.832,9.68665 3.4671,11.47156 0.2105,0.59148 0.5862,1.88204 0.8348,2.86789 0.9051,3.58816 3.9368,12.8957 4.283,14.16019 l 0.4416,1.61319 0.4388,-0.81394 c 0.3504,-0.65011 3.8164,-13.48688 10.1271,-37.27203 0.406,-1.52978 1.0289,-3.83001 1.3843,-5.11158 0.3558,-1.28159 1.0022,-3.70139 1.4365,-5.3773 1.1412,-4.40072 2.1253,-8.08957 2.8699,-10.75458 0.3579,-1.28158 0.9114,-3.29809 1.2303,-4.48107 0.319,-1.18302 0.9122,-3.3608 1.3186,-4.83956 0.4066,-1.47876 0.9656,-3.72703 1.2425,-4.99617 0.2771,-1.26917 0.6596,-2.46345 0.8501,-2.65401 l 0.3466,-0.3465 7.4553,-0.0348 c 4.1004,-0.0189 11.5689,0.0461 16.5965,0.14461 l 9.1415,0.17924 -1.7924,1.12035 c -2.4622,1.53895 -7.383,5.90112 -8.5396,7.57002 l -0.9526,1.37476 -0.011,47.49198 -0.011,47.49194 0.7148,1.47918 0.7146,1.47917 1.3542,1.03757 c 1.9143,1.46644 3.9737,2.72006 5.7459,3.49771 1.5788,0.69276 1.986,1.27432 0.8962,1.27974 -1.3529,0.01 -43.3588,0.0108 -44.4734,0.01 l -1.1862,-0.01 0.2215,-0.35849 c 0.1219,-0.19717 0.4945,-0.35996 0.8277,-0.36175 0.943,-0.009 8.0743,-3.01129 9.4302,-3.97527 0.6676,-0.47453 1.5364,-1.0413 1.9308,-1.25943 l 0.7167,-0.39664 0.092,-29.98416 0.092,-29.98417 h -0.3605 c -0.1983,0 -0.3617,0.28231 -0.3627,0.62735 0,0.38421 -4.787,13.59962 -5.3616,15.68379 -0.3337,1.21046 -1.3965,4.28947 -1.8559,5.37727 -0.4325,1.0237 -4.9606,14.48566 -5.3055,15.77339 -0.7449,2.78037 0.2761,-1.23555 -7.5959,22.31574 -1.7418,5.21078 -2.4637,6.5484 -2.4637,4.56583 0,-1.23998 -0.3284,-0.81302 -1.4706,-5.01392 -0.8353,-2.47282 -4.0913,-17.03681 -5.7794,-13.66398 -0.5206,1.06161 -1.6961,3.09926 -2.6119,4.52816 l -1.6652,2.59797 -3.1593,3.19854 -3.1591,3.19855 0.8396,0.99776 c 0.9177,1.0908 5.4348,3.81673 8.1321,4.9076 3.7652,1.52273 2.878,1.58379 -20.3356,1.39958 l -20.39303,-0.16183 -0.38248,-0.38677 -0.38222,-0.38676 0.62742,-0.35395 c 0.34494,-0.1947 0.62724,-0.50729 0.62724,-0.69465 v -0.34117 h -1.07307 c -0.31443,0 -10.01302,-0.14084 -22.77121,-17.38317 l -3.15522,-4.26399 -1.0407,1.2341 c -0.57253,0.67874 -2.14632,2.68593 -3.49741,4.46043 l -2.45688,3.22637 -4.47962,4.39147 c -2.46389,2.41529 -4.67086,4.39144 -4.90472,4.39144 -0.23376,0 -0.85311,0.30217 -1.37658,0.67146 -3.76621,2.65761 -19.38575,7.60856 -31.0644,3.39289 -1.38016,-0.49822 -3.15848,-1.07071 -3.95172,-1.2722 l -1.44241,-0.36641 -3.03877,1.42342 -3.03876,1.4234 -2.68852,0.39877 -2.68868,0.39879 -60.40476,0.0644 c -33.22282,0.0354 -60.6335,0.0407 -60.91281,0.0123 l -0.50782,-0.0523 1.40404,-1.27528 c 0.77223,-0.70142 1.24274,-1.21755 1.04557,-1.14697 -1.33215,0.47677 -4.45606,2.09176 -4.64854,2.40315 l -0.23335,0.3776 h -5.90504 -5.90539 l -1.32027,-0.55163 c -1.94776,-0.81386 -2.46373,-2.44206 -1.46706,-4.62955 l 0.41603,-0.91308 h 0.76699 c 0.42183,0 0.94651,0.17952 1.16592,0.39894 l 0.39894,0.39896 0.38972,-0.24087 c 0.9306,-0.57514 0.13456,-2.94963 -3.1312,-9.33994 -1.08864,-2.13022 -4.92339,-7.37315 -7.62942,-10.43111 -1.06392,-1.20228 -3.17451,-3.62205 -4.69023,-5.37729 -1.51569,-1.75527 -3.4301,-3.83664 -4.25419,-4.62531 l -1.49837,-1.43395 0.2148,11.6508 c 0.11817,6.40794 0.21773,13.147 0.22127,14.97568 l 0.01,3.32485 0.80658,0.34836 c 0.44363,0.19158 1.93582,1.0765 3.31601,1.96646 1.38015,0.88996 3.43698,2.10275 4.57069,2.69506 1.13372,0.59233 2.06129,1.15528 2.06129,1.25104 0,0.0958 -9.28534,0.17408 -20.63411,0.17408 h -20.63523 l 0.197,-0.31877 c 0.10835,-0.17532 0.64217,-0.42886 1.18624,-0.5634 0.54408,-0.13453 2.63233,-1.02942 4.64055,-1.98862 l 3.65129,-1.74403 0.53528,-0.82933 0.53528,-0.82936 -0.064,-32.92426 -0.0641,-32.92425 -1.43394,-0.5487 c -0.78867,-0.30179 -2.12842,-0.62644 -2.97728,-0.72148 l -1.54334,-0.17276 -0.71596,0.64794 c -0.39377,0.35637 -1.46421,1.90585 -2.37876,3.44329 l -1.66278,2.79534 -4.68157,0.01 c -4.97344,0.01 -22.18984,0.40246 -22.33139,0.51423 -0.0461,0.0366 -0.092,12.63728 -0.10184,28.00177 l -0.0179,27.93547 1.69041,1.46648 c 0.92973,0.80656 3.19258,2.24772 5.02857,3.20257 l 3.33817,1.73609 1.47533,1.74965 c 0.81143,0.96233 1.40385,1.82114 1.31652,1.90849 -0.20236,0.20235 -40.7953,0.38836 -40.99565,0.18785 z m 171.93904,-7.16028 c 0.17691,-11.06203 -0.3017,-41.11839 -0.96389,-60.53685 l -0.22333,-6.54542 -2.19216,-1.56124 c -2.25977,-1.60938 -5.92147,-3.60572 -6.16582,-3.3615 -0.0757,0.076 0.54507,0.62813 1.38002,1.22695 l 1.51816,1.08881 1.05519,2.65089 1.05536,2.65085 0.15198,4.15764 0.15199,4.15763 -0.61039,0.23426 c -0.33575,0.12884 -1.46635,0.33485 -2.51243,0.45779 l -1.90178,0.22354 -0.39773,-1.85482 c -0.21878,-1.02015 -0.39781,-2.10045 -0.39781,-2.40068 0,-0.43843 -1.69482,-3.72068 -1.92125,-3.72068 -0.0342,0 -0.94548,-0.33011 -2.02723,-0.7336 l -1.96662,-0.73362 -5.10842,-0.21363 -5.10834,-0.21362 v 15.11977 15.1198 l 1.7028,-0.18255 c 0.93644,-0.10041 4.68724,-0.35268 8.33476,-0.56061 3.64753,-0.20795 7.48939,-0.44341 8.53742,-0.52329 l 1.9053,-0.14521 -0.23719,1.14157 c -0.13048,0.62788 -0.47812,1.62556 -0.77289,2.21705 -0.29461,0.5915 -0.76352,1.8224 -1.04192,2.73532 -0.67107,2.19998 -0.8944,2.33147 -4.44728,2.61735 -3.81254,0.30677 -10.47122,1.43935 -12.36778,2.10371 l -1.43395,0.50225 -0.0944,12.06294 -0.0944,12.06294 h 7.65661 7.65669 l 0.54636,-0.62737 c 0.30072,-0.34505 0.63621,-1.03064 0.7456,-1.52357 0.10948,-0.49291 0.62537,-2.02544 1.1465,-3.40561 0.52104,-1.38016 1.09103,-2.96865 1.26664,-3.52998 0.33606,-1.07477 0.9906,-2.02654 1.39338,-2.02654 0.41661,0 3.14626,2.65513 3.56924,3.47165 l 0.40546,0.78305 -1.6e-4,3.5188 -8e-5,3.5188 -0.74169,1.95116 c -0.4079,1.07313 -1.05308,2.38859 -1.43378,2.92323 -1.37089,1.92533 -0.64631,1.53099 1.63862,-0.89175 l 2.32942,-2.4701 z m 42.08775,3.81442 1.64944,-1.88205 0.39373,-1.43393 0.39383,-1.43396 -0.22734,-10.57533 c -0.1251,-5.81644 -0.39072,-15.17292 -0.59052,-20.79217 -0.19987,-5.61928 -0.39943,-15.32833 -0.44373,-21.57574 l -0.0806,-11.35885 -1.02808,-1.07247 c -2.14401,-2.23687 -3.79224,-2.36232 -2.74374,-0.2088 l 0.68867,1.41439 0.24328,4.30939 0.24314,4.30939 -0.49407,0.4004 c -0.27173,0.22023 -1.30542,0.50937 -2.29717,0.64257 l -1.80298,0.24216 -0.58693,-1.72558 c -0.32296,-0.94909 -0.68313,-2.16503 -0.80066,-2.70214 -0.1173,-0.53711 -0.62595,-1.58458 -1.13046,-2.32777 l -0.91696,-1.35123 -1.59163,-0.62521 -1.5918,-0.62522 -5.58214,-0.2407 -5.58229,-0.24071 0.22919,15.02373 0.22938,15.02374 2.57847,-0.10177 c 1.41815,-0.0561 4.59496,-0.25079 7.05941,-0.43294 2.46478,-0.18214 5.85248,-0.37282 7.52849,-0.42367 l 3.0469,-0.0925 -0.12315,0.88391 c -0.0676,0.48616 -0.42281,1.60986 -0.78935,2.4971 -0.3662,0.88727 -0.84089,2.29718 -1.05454,3.13315 l -0.38883,1.51996 -0.79358,0.16489 c -0.43666,0.0906 -2.0844,0.26146 -3.66186,0.37946 -3.56346,0.26662 -8.63508,1.13282 -11.47143,1.95928 l -2.15094,0.62671 0.0626,3.72613 c 0.0342,2.04934 0.0742,7.47674 0.0897,12.06086 l 0.0268,8.33482 h 7.83018 7.83009 l 0.97994,-2.59902 c 0.5392,-1.42947 1.20008,-3.16366 1.46888,-3.85373 0.26853,-0.69007 0.69248,-1.89997 0.94189,-2.68866 0.24956,-0.78865 0.5809,-1.58608 0.73656,-1.77205 l 0.28279,-0.33807 1.06342,0.7862 c 0.58489,0.43242 1.2062,0.7862 1.38091,0.7862 0.17448,0 0.62473,0.33958 1.0003,0.75461 l 0.68304,0.75463 -0.01,4.71229 -0.01,4.7123 -0.84741,1.61319 c -0.46581,0.88726 -1.1596,2.05679 -1.5417,2.59902 l -0.69469,0.98584 h 0.35529 c 0.19524,0 1.0973,-0.84694 2.0045,-1.88204 z m 60.24495,0.80043 c 0.78877,-0.19116 2.80515,-0.49714 4.48116,-0.67997 1.50341,-0.0592 2.8133,-0.20981 4.12255,-0.89638 0.59149,-0.31019 1.35004,-0.56497 1.68578,-0.56618 0.33565,-0.003 1.84421,-0.65204 3.35209,-1.44626 l 2.74205,-1.44405 2.34138,-2.0512 c 5.5994,-4.90509 6.42604,-5.67526 7.44442,-6.93503 0.59141,-0.73179 2.39693,-2.87614 4.0121,-4.76521 l 2.93636,-3.43469 3.30911,-5.82589 c 1.82001,-3.20424 3.77531,-6.71316 4.34489,-7.79755 3.53904,-6.73519 12.83548,-21.89793 25.78286,-24.1442 l 2.7444,-0.47613 2.2744,0.13918 c 10.5929,0.64818 19.1968,9.61489 21.0825,21.97172 l 0.4104,2.68866 -0.2228,2.68864 c -0.1225,1.47875 -0.4599,3.49524 -0.7497,4.48107 l -0.5267,1.79243 0.1026,10.14219 0.1024,10.14216 1.1074,-0.82155 c 0.609,-0.45185 2.1998,-2.07103 3.5348,-3.59823 l 2.4277,-2.77669 1.932,-3.49676 1.9321,-3.49676 v -0.90613 c 0,-0.49836 0.2274,-1.23105 0.5056,-1.6282 0.4979,-0.71095 1.703,-7.61851 2.0668,-9.6543 0.3638,-2.0358 0.304,-1.37745 0.361,-2.50938 0.057,-1.13194 0.012,-2.46237 -0.1805,-4.26119 -0.1929,-1.79884 -0.979,-5.50758 -1.1232,-6.49338 -0.1442,-0.98585 -0.6506,-2.64416 -1.1252,-3.68511 -0.4746,-1.04099 -0.8629,-2.04212 -0.8629,-2.22477 0,-0.41283 -1.5928,-3.12784 -3.7216,-6.34395 l -1.6177,-2.44411 -2.7973,-2.73085 c -8.8746,-8.51475 -16.333,-10.1111 -27.7187,-9.08715 -8.45948,0.63533 -13.50387,4.26408 -19.2085,9.98017 -2.58314,2.5881 -5.44988,5.64366 -6.37067,6.7901 -0.9209,1.14647 -1.83533,2.27569 -2.03227,2.50942 -1.72773,2.05092 -6.43819,8.24096 -6.43819,8.46057 0,0.1535 -0.32263,0.65107 -0.71701,1.10575 -0.3943,0.4547 -0.71684,1.02422 -0.71684,1.26566 0,0.24145 -0.25886,0.65376 -0.57513,0.91627 -0.31635,0.26249 -0.72662,0.80653 -0.9116,1.20896 -0.46988,1.02153 -1.00778,1.88819 -2.45671,3.95806 -0.69006,0.98585 -1.41586,2.07439 -1.61313,2.41898 -2.66124,4.6511 -16.12975,26.16835 -34.62955,20.5533 -2.5178,-0.7642 -4.95122,-2.10613 -7.24739,-3.99631 l -2.08163,-1.7138 -1.23269,-1.85713 c -0.67807,-1.02142 -1.23266,-1.96797 -1.23266,-2.10342 0,-0.26681 -1.46628,-2.43375 -1.84502,-2.72663 -0.12739,-0.0986 -0.41956,-0.90519 -0.64925,-1.79244 -0.22936,-0.88725 -0.63377,-2.25846 -0.89824,-3.04714 -0.26462,-0.78865 -0.66496,-2.72449 -0.88967,-4.30183 l -0.40873,-2.86787 0.35879,-2.72976 c 0.19726,-1.50135 0.61821,-3.43717 0.93546,-4.30183 0.31692,-0.86464 0.66839,-1.89472 0.78104,-2.28906 0.11287,-0.39433 0.60696,-1.25787 1.09819,-1.919 l 0.89319,-1.20203 -0.41401,-2.50719 c -0.76165,-4.61245 -3.91111,-8.28174 -5.2881,-9.69703 -0.65706,-0.67527 -1.56036,-0.84163 -1.56036,-0.28735 0,0.18702 -0.42133,0.79196 -0.93628,1.34433 -9.09412,9.75477 -14.16499,32.67339 2.00704,50.96537 l 2.33493,2.64089 c 2.80069,1.61301 5.19323,3.7776 8.15549,4.94455 3.91811,1.92061 12.29937,3.92189 17.29695,2.85257 z m 66.76785,-2.61797 1.5237,-1.46847 v -3.86872 -3.86871 l -0.4481,-0.023 c -6.46238,-0.33008 -11.69834,-4.66053 -13.76582,-6.63681 -2.24923,-2.14996 -11.38545,-15.02085 -11.41014,-16.07428 -0.01,-0.18075 -0.19514,-0.3911 -0.42427,-0.46751 l -0.41663,-0.13886 -2.41337,4.23159 c -1.3274,2.32738 -2.95478,5.17468 -3.61641,6.32732 -1.51645,2.64189 -1.59212,2.22617 1.03729,5.69956 8.04747,10.63107 19.59369,17.64687 24.28769,18.27184 l 0.89636,0.11939 -0.0822,0.41595 -0.0812,0.41595 1.6951,-0.73343 1.6947,-0.73342 z m -102.36952,-3.44768 3.47347,-0.31048 1.45576,-0.81821 c 1.77457,-0.99734 1.77262,-0.9101 0.0684,-3.05915 -5.71457,-7.20583 -9.18673,-16.51106 -9.61524,-25.7682 l -0.16592,-3.58483 0.77298,-3.40562 c 1.88988,-8.32787 4.85338,-14.92651 8.68352,-19.33453 l 1.38117,-1.58948 -0.1063,-0.55078 -0.10596,-0.55075 -1.25191,-0.37264 c -0.6885,-0.20498 -1.61557,-0.57879 -2.05988,-0.83072 l -0.80832,-0.45803 -3.31438,0.10311 -3.31448,0.10309 -0.0927,29.93357 c -0.0505,16.46348 -0.0163,30.13523 0.0782,30.3817 0.19841,0.52017 0.32369,0.52301 4.92141,0.11205 z m 58.31294,-28.79899 c 3.11378,-5.712 -14.42734,-27.96909 -28.74709,-23.93965 l -1.73416,0.4879 0.19303,0.75127 c 0.10629,0.4132 0.69062,2.20312 1.29848,3.97764 0.60804,1.7745 1.25638,4.35561 1.44063,5.73577 0.18431,1.38017 0.50141,3.07296 0.70454,3.76174 l 0.36921,1.25235 v 4.34738 4.34737 l -0.7289,4.25864 c -0.98921,5.78067 -2.63044,11.39071 -4.157,14.20947 l -0.53536,0.98866 0.47013,0.16098 c 1.12899,0.38671 2.89842,0.48429 6.93812,0.38265 8.6398,-0.21747 14.8061,-2.96161 24.48837,-20.72217 z m 45.93878,-1.69475 v -22.58461 h -0.6596 c -12.81915,0.88108 -18.17337,13.022 -24.4345,22.29816 v 0.87738 0.87738 l 2.19827,3.29879 c 7.919,11.88358 11.43185,15.1142 18.59403,17.10016 1.2816,0.35532 2.7737,0.66211 3.3159,0.68172 l 0.9859,0.0356 z m -88.04508,-0.35848 0.0358,-7.34896 -0.6644,-2.50943 c -0.88048,-3.32545 -0.98628,-3.43574 -1.51971,-1.58268 -0.25045,0.87048 -0.74463,2.46995 -1.09795,3.55437 l -0.6424,1.97167 -0.01,4.12259 -0.01,4.12261 0.77573,2.68861 c 0.42681,1.47876 1.05259,3.33393 1.39069,4.12261 l 0.61463,1.43393 0.54441,-1.61317 0.54426,-1.61321 z m -165.12184,-2.59904 c 2.27878,-1.66245 8.25325,-6.44245 11.36814,-9.09531 l 3.22636,-2.74782 0.79013,-2.90615 0.79012,-2.90614 -0.19219,-2.33017 c -0.24734,-2.99894 -1.055,-5.2666 -2.38301,-6.69082 l -1.05766,-1.1343 -2.20004,-1.01423 -2.20009,-1.01423 -5.55653,-0.11651 -5.55652,-0.11654 -0.42642,0.70188 -0.42637,0.70186 -0.0758,14.32571 c -0.0417,7.8791 0.0386,14.51098 0.17869,14.73754 l 0.25454,0.41187 h 1.18053 1.18054 z m 216.95979,-11.07999 v -1.02088 l -2.64674,-3.50446 -2.64706,-3.50445 -3.89066,-3.70149 c -20.57378,-19.57282 -41.54772,-9.28577 -39.00352,-7.34506 1.42424,1.08609 4.13916,4.45375 5.54702,6.88006 l 0.91486,1.57693 6.07549,0.0503 c 10.4277,-0.14113 15.51341,3.72058 21.959,12.10718 1.24309,1.64969 2.89663,3.84167 3.67424,4.871 0.77753,1.02931 1.41374,2.00255 1.41374,2.16271 0,0.52789 1.55791,2.2393 2.03855,2.2393 h 0.47078 z"
         id="path36"
         sodipodi:nodetypes="ssscccssccsccccssscsccccsccssccccccccccscsscscccssscsssccssscsscsscssscccssscccssssssssssssssscsssssssssccscsscccccsssccccsscccsssssssssscccssscccsscsscsscsssssccccccccscscccsscsscssssscsscssssscssscccccsccssccsscsscsssssscssscccccsscsssscccccssscssssscccccsssssscccssscscccccsccsscccsscssscccccccssccsssccsscsscccsssscssscccsscscccsssscssscssscssccscccsscccssssssssscsssssssssssssscsssssscsscsccsssscsccccccsscscssssccccccccscscsscccsscccccccssccssscccsscsssccscccsssccccssscccsscccccscccsscccccccssccccccccsssccsssscc" /><path
         id="path2"
         style="fill:url(#linearGradient6);fill-opacity:1;stroke-width:0.0264583"
         d="m 232.92532,30.869434 -123.7847,0.219108 0.86765,83.222828 122.72998,0.93534 z m -103.41178,11.596191 3.175,4.365625 4.10104,4.7625 3.70417,6.217708 -8.73125,4.894792 -4.63021,-9.525 -5.82083,-5.291667 z m 81.88854,34.13125 0.13229,17.330208 1.05834,7.805207 -22.88646,-2.51354 5.68854,-3.307292 0.39688,-9.525 z"
         clip-path="url(#clipPath4)"
         transform="matrix(1.3549075,0,0,1.3549075,741.2384,303.71402)" /><path
         style="fill:#000000;stroke-width:1.35491"
         d="m 662.45814,439.01089 c -0.33172,-0.33199 -0.11212,-0.7103 0.53074,-0.91434 1.85174,-0.58771 4.82778,-4.22502 5.55674,-6.79138 l 0.51812,-1.82402 0.42939,-49.04401 0.4294,-49.044 -0.67476,-0.78553 c -0.37113,-0.43205 -0.98202,-1.35017 -1.35754,-2.04028 -0.37553,-0.69005 -1.06811,-1.72148 -1.53907,-2.292 l -0.85629,-1.03735 0.28907,-0.24659 c 0.15897,-0.13562 4.64465,-0.12681 9.96818,0.0195 7.04787,0.19368 57.5859,0.7673 61.3472,0.6963 0.22255,-0.009 0.61209,0.51666 0.86564,1.15743 0.25356,0.64082 0.66219,1.40707 0.90807,1.7028 1.17565,1.41414 5.94345,11.78697 6.4245,13.97714 0.15078,0.68641 0.4791,1.57302 0.72965,1.97024 0.25055,0.39725 0.57171,1.28685 0.71371,1.97693 0.14199,0.69008 0.56112,1.85323 0.93138,2.58476 1.44258,2.84998 0.88229,3.04201 -2.01693,0.69127 -2.50175,-2.02848 -5.76817,-4.35061 -9.34739,-6.64514 l -2.5377,-1.62685 -2.12261,-0.55604 -2.12265,-0.55604 -5.91502,-0.34654 c -3.25325,-0.19058 -9.78666,-0.34354 -14.51867,-0.33986 l -8.60365,0.01 -2.50943,0.3561 c -1.38015,0.19588 -3.43573,0.45485 -4.56789,0.57554 l -2.05853,0.21943 -0.34528,0.41605 -0.34529,0.41605 -0.0526,7.99383 -0.0526,7.99383 0.31455,0.31455 0.31454,0.31453 8.14799,0.37277 8.14798,0.37275 15.50311,-0.0787 c 24.77527,-0.12587 28.28158,-0.0969 37.37075,0.30924 l 8.60366,0.38444 2.07995,0.93044 c 4.56462,2.04189 8.84406,6.74617 10.31527,11.33926 0.1597,0.49853 0.53725,1.58203 0.839,2.40783 3.41383,9.34158 1.53965,14.59174 -7.92698,22.20579 l -3.33557,2.68281 v 0.6832 0.6832 l 3.13676,3.6454 c 1.72523,2.00498 4.74993,5.52031 6.72161,7.81186 3.6659,4.26065 5.52326,6.4697 7.66555,9.11713 l 1.21284,1.49876 -0.22644,-12.00926 c -0.12455,-6.60514 -0.28585,-14.10644 -0.35849,-16.66963 -0.0727,-2.56315 -0.1535,-10.04273 -0.17977,-16.62122 l -0.0477,-11.96094 -1.27164,-1.16479 c -0.69941,-0.6406 -2.71588,-2.01965 -4.48107,-3.06453 -1.76519,-1.04487 -3.20942,-1.99434 -3.2094,-2.10996 1e-5,-0.11556 28.19045,-0.19827 62.64544,-0.18374 l 62.64539,0.0264 2.84686,0.805 c 2.88548,0.81584 3.5093,1.08559 7.79491,3.36992 l 2.3966,1.27746 1.86034,-0.70685 c 22.26557,-8.46026 42.9235,7.46438 49.61971,18.9175 l 0.66138,1.13128 0.74918,-0.35916 c 0.41214,-0.19758 1.63651,-1.42344 2.72095,-2.72419 11.67864,-14.0083 19.09203,-18.13417 30.29201,-19.15628 l 1.0755,-0.0981 0.094,-14.39379 0.093,-14.3938 -1.1688,-0.98581 c -0.6432,-0.54217 -1.7341,-1.21348 -2.4241,-1.49177 -4.15632,-1.67607 -8.71961,-4.28495 -8.39991,-4.80228 l 0.18066,-0.2923 16.42845,-0.0194 16.4284,-0.0194 0.3976,0.47902 c 0.2186,0.2635 0.6504,1.56995 0.9598,2.90327 0.3093,1.33333 0.7849,3.01599 1.057,3.73927 0.2724,0.72324 0.8339,2.5249 1.2478,4.00365 0.4139,1.47876 0.9269,3.17262 1.1402,3.7641 0.213,0.5915 0.5996,1.88206 0.8591,2.86791 0.2593,0.98582 0.9002,3.16363 1.424,4.83956 0.5237,1.67592 1.1744,3.85371 1.4459,4.83955 0.2712,0.98584 0.748,2.59902 1.0593,3.58486 0.3116,0.98583 0.8782,2.84099 1.2593,4.12259 1.889,6.35299 2.2167,7.42835 2.5662,8.42442 0.2074,0.59149 0.5808,1.88206 0.8295,2.86789 0.4834,1.91613 2.8316,9.68664 3.4671,11.47155 0.2105,0.59148 0.5861,1.88205 0.8347,2.86789 0.9052,3.58815 3.9366,12.89571 4.283,14.1602 l 0.4418,1.61317 0.4385,-0.81392 c 0.3503,-0.65013 3.8165,-13.4869 10.1271,-37.27204 0.4058,-1.52978 1.0289,-3.82999 1.3844,-5.11159 0.3556,-1.28156 1.0021,-3.70136 1.4366,-5.37728 1.1409,-4.40073 2.1252,-8.08958 2.8696,-10.75459 0.3579,-1.28157 0.9118,-3.29807 1.2304,-4.48108 0.3189,-1.18301 0.9124,-3.36079 1.3187,-4.83955 0.4065,-1.47877 0.9655,-3.72703 1.2428,-4.99619 0.2767,-1.26912 0.6593,-2.46344 0.8498,-2.654 l 0.3465,-0.34649 7.4553,-0.0348 c 4.1005,-0.0189 11.569,0.0461 16.5966,0.14461 l 9.1413,0.17925 -1.7923,1.12034 c -2.4621,1.53893 -7.3829,5.9011 -8.5395,7.57003 l -0.9528,1.37476 -0.01,47.49197 -0.011,47.49196 0.7146,1.47915 0.7147,1.47918 1.3543,1.03758 c 1.9142,1.46642 3.9736,2.72005 5.7459,3.49772 1.5788,0.69274 1.9862,1.27429 0.8962,1.27973 -1.3527,0.01 -43.3589,0.0108 -44.4733,0.01 l -1.1864,-0.01 0.2217,-0.35849 c 0.1218,-0.19717 0.4942,-0.35997 0.8278,-0.36177 0.9428,-0.01 8.074,-3.01128 9.43,-3.97526 0.6676,-0.47454 1.5364,-1.0413 1.9306,-1.25944 l 0.7171,-0.39663 0.091,-29.98417 0.092,-29.98417 h -0.3607 c -0.1979,0 -0.3615,0.28233 -0.3626,0.62738 0,0.38418 -4.7868,13.5996 -5.3616,15.68376 -0.3336,1.21048 -1.3962,4.28948 -1.8558,5.3773 -0.4326,1.02367 -4.9606,14.48566 -5.3055,15.77335 -0.7451,2.78039 0.2761,-1.23553 -7.5962,22.31577 -1.7417,5.21077 -2.4633,6.54839 -2.4633,4.56582 0,-1.24 -0.3287,-0.81304 -1.4709,-5.01393 -0.8354,-2.47281 -4.0912,-17.03677 -5.7792,-13.66398 -0.5206,1.06161 -1.6961,3.09928 -2.6119,4.52816 l -1.6651,2.598 -3.1595,3.19852 -3.1592,3.19853 0.8397,0.99779 c 0.9179,1.09079 5.4348,3.81671 8.1322,4.90758 3.7652,1.52274 2.8778,1.58379 -20.3355,1.39959 l -20.39333,-0.16183 -0.38222,-0.38678 -0.3823,-0.38675 0.62724,-0.35397 c 0.3453,-0.19467 0.62751,-0.50726 0.62751,-0.69464 v -0.34116 h -1.07307 c -0.31471,0 -10.01326,-0.14083 -22.77153,-17.38315 l -3.15516,-4.264 -1.04061,1.23409 c -0.57235,0.67873 -2.14623,2.68592 -3.49733,4.46043 l -2.45672,3.22637 -4.47978,4.39146 c -2.46371,2.41529 -4.67103,4.39148 -4.90479,4.39148 -0.23376,0 -0.85311,0.30213 -1.37651,0.67145 -3.76629,2.6576 -19.38599,7.60855 -31.06438,3.39286 -1.38018,-0.49821 -3.15858,-1.07069 -3.95198,-1.2722 l -1.44233,-0.36639 -3.03851,1.4234 -3.03877,1.42341 -2.68859,0.39878 -2.68869,0.39878 -60.40493,0.0643 c -33.22249,0.0354 -60.63327,0.0408 -60.91258,0.0123 l -0.50781,-0.0522 1.40401,-1.27528 c 0.77225,-0.70141 1.24275,-1.21757 1.04557,-1.147 -1.33212,0.47679 -4.45603,2.09179 -4.64849,2.40318 l -0.23337,0.37761 h -5.90537 -5.90537 l -1.32025,-0.55165 c -1.94779,-0.81384 -2.46374,-2.44208 -1.46707,-4.62955 l 0.41602,-0.91308 h 0.76697 c 0.42183,0 0.94653,0.17952 1.16594,0.39895 l 0.39894,0.39892 0.38973,-0.24084 c 0.93058,-0.57514 0.13453,-2.94961 -3.13122,-9.33993 -1.08862,-2.13022 -4.92338,-7.37317 -7.62942,-10.43113 -1.0639,-1.20227 -3.1745,-3.62205 -4.69022,-5.37728 -1.51571,-1.75526 -3.4301,-3.83663 -4.25421,-4.62529 l -1.49837,-1.43395 0.21483,11.65079 c 0.11815,6.40794 0.21772,13.14699 0.22124,14.97567 l 0.01,3.32486 0.80659,0.34835 c 0.44362,0.19157 1.93583,1.0765 3.316,1.96646 1.38015,0.88998 3.43697,2.10276 4.5707,2.69506 1.1337,0.59234 2.06129,1.1553 2.06129,1.25105 0,0.0958 -9.28535,0.17408 -20.6341,0.17408 h -20.63472 l 0.19701,-0.31878 c 0.10837,-0.17533 0.64219,-0.42884 1.18626,-0.56339 0.54406,-0.13455 2.6323,-1.02942 4.64053,-1.98865 l 3.65131,-1.74402 0.53528,-0.82934 0.53526,-0.82933 -0.0641,-32.92426 -0.0641,-32.92427 -1.43392,-0.54871 c -0.78868,-0.30176 -2.12845,-0.62641 -2.97728,-0.72146 l -1.54336,-0.17275 -0.71595,0.64794 c -0.39378,0.35639 -1.46419,1.90584 -2.37875,3.44327 l -1.66279,2.79535 -4.68157,0.009 c -4.97342,0.01 -22.18981,0.40246 -22.33138,0.51423 -0.0461,0.0366 -0.0921,12.63729 -0.10186,28.00179 l -0.0179,27.93544 1.69041,1.46648 c 0.92973,0.80658 3.19258,2.24771 5.02857,3.20258 l 3.33816,1.73608 1.47533,1.74967 c 0.81143,0.96231 1.40388,1.82112 1.31652,1.90848 -0.20236,0.20233 -40.79531,0.38835 -40.99563,0.18786 z m 171.93894,-7.16028 c 0.17715,-11.06204 -0.30153,-41.11838 -0.96389,-60.53684 l -0.22326,-6.54542 -2.19215,-1.56124 c -2.25969,-1.6094 -5.92148,-3.60574 -6.16573,-3.36152 -0.0757,0.076 0.5449,0.62813 1.37993,1.22697 l 1.51816,1.0888 1.05526,2.65087 1.0552,2.65086 0.15216,4.15764 0.15206,4.15763 -0.61047,0.23427 c -0.33582,0.12886 -1.46636,0.33486 -2.51243,0.4578 l -1.90179,0.22351 -0.3978,-1.8548 c -0.21869,-1.02015 -0.39781,-2.10046 -0.39781,-2.40067 0,-0.43843 -1.69473,-3.72069 -1.92117,-3.72069 -0.0333,0 -0.94564,-0.33012 -2.02724,-0.73362 l -1.96661,-0.73361 -5.10843,-0.21362 -5.10834,-0.21363 v 15.11977 15.1198 l 1.70264,-0.18255 c 0.93653,-0.1004 4.68733,-0.35268 8.33493,-0.56063 3.6476,-0.20791 7.48939,-0.4434 8.53734,-0.52324 l 1.90536,-0.14523 -0.23718,1.14158 c -0.13048,0.62788 -0.47819,1.62555 -0.77296,2.21703 -0.29453,0.59153 -0.76335,1.82241 -1.04184,2.73532 -0.67124,2.20001 -0.8944,2.33149 -4.44745,2.61736 -3.81254,0.3068 -10.47104,1.43935 -12.36778,2.1037 l -1.43386,0.50226 -0.0944,12.06294 -0.0944,12.06293 h 7.6566 7.65677 l 0.54645,-0.62735 c 0.30047,-0.34504 0.63597,-1.03066 0.74544,-1.52356 0.10938,-0.49293 0.62545,-2.02545 1.14658,-3.40562 0.52104,-1.38018 1.09094,-2.96866 1.26654,-3.52997 0.33616,-1.0748 0.99061,-2.02656 1.39339,-2.02656 0.41654,0 3.14636,2.65513 3.56933,3.47167 l 0.40554,0.78303 -3.3e-4,3.51878 v 3.51882 l -0.74176,1.95116 c -0.40767,1.07312 -1.05292,2.38857 -1.43362,2.92324 -1.37098,1.92532 -0.64647,1.53098 1.63846,-0.89176 l 2.32965,-2.47012 z m 42.08774,3.81442 1.64953,-1.88205 0.39366,-1.43395 0.39364,-1.43393 -0.22699,-10.57534 c -0.12512,-5.81644 -0.3908,-15.17292 -0.59061,-20.79219 -0.19979,-5.61927 -0.39951,-15.32833 -0.44382,-21.57571 l -0.0806,-11.35886 -1.02784,-1.07249 c -2.14402,-2.23685 -3.79234,-2.36228 -2.74382,-0.20878 l 0.68874,1.41437 0.24322,4.30941 0.24312,4.30938 -0.49415,0.40043 c -0.27165,0.2202 -1.30533,0.50935 -2.297,0.64255 l -1.80306,0.24217 -0.58702,-1.72559 c -0.32287,-0.94908 -0.68296,-2.16505 -0.8005,-2.70215 -0.11737,-0.53708 -0.6262,-1.58457 -1.13038,-2.32776 l -0.91704,-1.35122 -1.59163,-0.62523 -1.59179,-0.62521 -5.58213,-0.24072 -5.58231,-0.24069 0.22928,15.02372 0.22921,15.02374 2.57849,-0.10176 c 1.41812,-0.0561 4.59502,-0.25078 7.05956,-0.43294 2.46469,-0.18214 5.85231,-0.37283 7.52816,-0.42369 l 3.04723,-0.0925 -0.12316,0.88394 c -0.0676,0.48614 -0.42289,1.60985 -0.78926,2.49709 -0.36643,0.88727 -0.84114,2.29717 -1.05494,3.13314 l -0.3886,1.51996 -0.79375,0.16493 c -0.43664,0.0906 -2.08415,0.26144 -3.66169,0.37943 -3.56346,0.26662 -8.63498,1.13281 -11.47142,1.95929 l -2.15094,0.62672 0.0626,3.72609 c 0.0351,2.04935 0.0742,7.47676 0.0897,12.0609 l 0.0277,8.3348 h 7.83009 7.82992 l 0.98019,-2.59903 c 0.53912,-1.42948 1.19992,-3.16363 1.4688,-3.85372 0.2687,-0.69008 0.69257,-1.89999 0.94197,-2.68864 0.24957,-0.78867 0.58107,-1.5861 0.7364,-1.77204 l 0.28295,-0.3381 1.06343,0.78619 c 0.58473,0.43243 1.20628,0.78621 1.38083,0.78621 0.17463,0 0.62457,0.33957 1.0003,0.7546 l 0.68279,0.75461 -0.01,4.71232 -0.01,4.7123 -0.847,1.61319 c -0.46606,0.88724 -1.15985,2.05681 -1.54195,2.59902 l -0.69444,0.98583 h 0.35521 c 0.19523,0 1.09721,-0.84692 2.00466,-1.88205 z m 60.24503,0.8004 c 0.78877,-0.19112 2.80524,-0.49712 4.48109,-0.67993 1.5035,-0.0592 2.81331,-0.20982 4.12262,-0.89639 0.5915,-0.31019 1.35005,-0.56496 1.6857,-0.56618 0.33574,-0.003 1.8442,-0.65205 3.35211,-1.44627 l 2.74203,-1.44405 2.34146,-2.05119 c 5.59932,-4.9051 6.42613,-5.67528 7.44443,-6.93503 0.59149,-0.73178 2.39684,-2.87613 4.01192,-4.76522 l 2.93663,-3.43467 3.30909,-5.82589 c 1.81993,-3.20424 3.77516,-6.71317 4.34491,-7.79757 3.53894,-6.73519 12.83526,-21.89792 25.78286,-24.1442 l 2.7442,-0.47612 2.2745,0.13916 c 10.5929,0.6482 19.1967,9.61491 21.0826,21.97174 l 0.4104,2.68866 -0.2228,2.68864 c -0.1225,1.47876 -0.46,3.49524 -0.7495,4.48106 l -0.527,1.79244 0.1025,10.14217 0.1026,10.14218 1.1074,-0.82154 c 0.6089,-0.45184 2.1996,-2.07104 3.5349,-3.59824 l 2.4274,-2.77668 1.9322,-3.49677 1.9318,-3.49677 v -0.90611 c 0,-0.49835 0.2277,-1.23106 0.506,-1.62819 0.4979,-0.71097 1.7028,-7.61853 2.0667,-9.65431 0.3638,-2.03577 0.3039,-1.37744 0.361,-2.50939 0.056,-1.13196 0.012,-2.46237 -0.1806,-4.2612 -0.1928,-1.79883 -0.979,-5.50755 -1.1232,-6.49339 -0.1443,-0.98582 -0.6505,-2.64414 -1.1251,-3.68511 -0.4747,-1.04096 -0.8631,-2.04211 -0.8631,-2.22476 0,-0.41283 -1.5926,-3.12784 -3.7215,-6.34394 l -1.6175,-2.44413 -2.7976,-2.73083 c -8.8745,-8.51473 -16.333,-10.11111 -27.7184,-9.08717 -8.45967,0.63535 -13.50384,4.26411 -19.20878,9.98018 -2.58298,2.58811 -5.44978,5.64367 -6.37067,6.79013 -0.9208,1.14646 -1.83524,2.27567 -2.03219,2.50939 -1.72774,2.05092 -6.43811,8.24096 -6.43811,8.46057 0,0.15348 -0.32261,0.6511 -0.71709,1.10576 -0.39422,0.4547 -0.717,1.02421 -0.717,1.26567 0,0.24145 -0.25861,0.65374 -0.57505,0.91625 -0.31627,0.26251 -0.72653,0.80652 -0.91159,1.20897 -0.46974,1.02154 -1.0078,1.88821 -2.45663,3.95808 -0.69005,0.98583 -1.41594,2.07438 -1.61313,2.41899 -2.66124,4.65109 -16.12967,26.16832 -34.62955,20.55325 -2.51764,-0.76418 -4.95131,-2.10611 -7.24724,-3.99629 l -2.08178,-1.71378 -1.23268,-1.85714 c -0.678,-1.02144 -1.23268,-1.96796 -1.23268,-2.10343 0,-0.2668 -1.46636,-2.43375 -1.84493,-2.72662 -0.12748,-0.0986 -0.41971,-0.90517 -0.64917,-1.79246 -0.2296,-0.88724 -0.63401,-2.25843 -0.89856,-3.04712 -0.26448,-0.78867 -0.66472,-2.72449 -0.8896,-4.30184 l -0.40856,-2.86788 0.35871,-2.72975 c 0.19735,-1.50136 0.61829,-3.4372 0.93538,-4.30182 0.31693,-0.86463 0.66854,-1.89474 0.78111,-2.28906 0.11281,-0.39433 0.60689,-1.25788 1.0982,-1.91901 l 0.89335,-1.20205 -0.41402,-2.50716 c -0.76172,-4.61245 -3.91133,-8.28175 -5.28826,-9.69705 -0.65706,-0.67524 -1.56035,-0.84162 -1.56035,-0.28735 0,0.18704 -0.42142,0.79197 -0.93628,1.34433 -9.09404,9.75478 -14.16499,32.6734 2.00694,50.96537 l 2.33495,2.6409 c 2.80093,1.61302 5.19321,3.77759 8.15557,4.94453 3.91803,1.92062 12.29946,3.92191 17.29694,2.85258 z m 66.76805,-2.61794 1.5235,-1.4685 v -3.86869 -3.86871 l -0.4481,-0.023 c -6.46227,-0.33008 -11.69827,-4.66054 -13.76575,-6.63683 -2.24924,-2.14994 -11.3856,-15.02083 -11.41011,-16.07425 -0.01,-0.18076 -0.19516,-0.39112 -0.42435,-0.46751 l -0.41664,-0.13887 -2.41329,4.23158 c -1.32748,2.32738 -2.95471,5.17468 -3.61641,6.32734 -1.51644,2.64188 -1.59228,2.22616 1.03719,5.69953 8.04756,10.63109 19.59367,17.64688 24.2878,18.27188 l 0.89619,0.11936 -0.0812,0.41595 -0.0822,0.41597 1.69507,-0.73344 1.6949,-0.73344 z m -308.5668,1.96353 c 0,-0.16617 -0.73758,-0.68149 -1.63907,-1.14514 l -1.63911,-0.84301 -1.94574,-2.10168 -1.94579,-2.10167 -0.0458,-5.9842 c -0.0252,-3.29132 -0.0813,-6.30684 -0.12477,-6.70117 -0.0435,-0.39434 -0.18609,-17.33279 -0.31696,-37.64103 l -0.238,-36.92407 0.38767,-1.43391 c 0.21325,-0.78867 0.4777,-1.83727 0.58769,-2.33017 0.10999,-0.49291 0.52368,-1.25222 0.91925,-1.68734 l 0.71923,-0.79116 1.83409,-0.36356 c 1.00874,-0.19996 6.59297,-0.50739 12.40941,-0.6832 l 10.57534,-0.31966 8.78291,0.42134 8.78288,0.42132 2.99528,1.67712 c 1.64741,0.92241 3.65534,2.16254 4.46208,2.75584 0.80674,0.59329 1.78267,1.07868 2.16872,1.07868 h 0.7019 l -0.59328,-0.65555 c -0.32631,-0.36057 -0.59329,-0.80911 -0.59329,-0.99673 0,-1.07645 -4.47822,-10.54151 -5.60563,-11.84786 l -0.66787,-0.77392 -15.41491,0.31711 c -14.42094,0.29668 -22.60058,0.25235 -41.31097,-0.22382 l -7.61332,-0.19376 0.20784,0.54164 c 0.11432,0.29791 0.51737,0.63985 0.89566,0.75994 0.37826,0.12005 0.92797,0.6828 1.22156,1.25053 l 0.53381,1.03225 -0.01,27.35236 -0.01,27.35236 -0.33248,6.09426 c -0.18288,3.35184 -0.43412,13.51492 -0.55832,22.58461 l -0.22583,16.49035 -0.38043,1.2547 c -0.20925,0.69009 -0.83603,1.93821 -1.39288,2.77357 l -1.01242,1.5189 12.26284,0.0992 c 6.74457,0.0546 12.46451,0.13729 12.71097,0.18391 0.24646,0.0466 0.44811,-0.0512 0.44811,-0.21735 z m 130.66377,-0.0563 h 1.90855 l 0.59378,-1.7028 0.59377,-1.7028 0.16885,-2.68865 c 0.0929,-1.47876 0.22887,-3.29357 0.3021,-4.03296 l 0.13309,-1.34434 h -0.33313 c -0.18336,0 -0.49392,0.44364 -0.69022,0.98582 -0.19638,0.54222 -0.49799,1.30852 -0.67018,1.70284 -0.17242,0.39432 -0.63368,1.52355 -1.02538,2.50939 l -0.7122,1.79242 -1.3445,0.67938 -1.34452,0.67937 -4.16513,0.24105 c -2.29072,0.13264 -6.50424,0.14953 -9.36316,0.0376 l -5.19801,-0.20347 -0.0915,-34.6442 -0.0914,-34.64422 0.81646,-0.20492 c 0.44904,-0.11271 2.26473,-0.0524 4.03475,0.13359 1.77007,0.18617 4.6865,0.34137 6.48093,0.34485 l 3.26259,0.01 1.75617,0.90653 1.75614,0.9065 1.52508,1.68435 1.52501,1.68437 0.59548,1.62134 c 0.3276,0.89172 0.75098,1.78264 0.94084,1.9798 l 0.34519,0.35853 -0.2209,-2.8679 c -0.24923,-3.23607 -0.93212,-5.48583 -2.24689,-7.40191 l -0.89718,-1.30765 -1.50023,-0.3686 -1.50033,-0.36859 -17.11767,-0.2565 -17.11767,-0.25651 v 0.3402 c 0,0.18709 0.61237,0.61037 1.36082,0.94058 0.74844,0.3302 1.79004,1.04841 2.31464,1.59598 l 0.95388,0.99562 0.19988,11.82659 c 0.10995,6.50462 0.35839,16.34351 0.55207,21.86421 0.1937,5.52068 0.42085,15.73266 0.50483,22.6933 l 0.15272,12.65575 -1.04778,1.1933 c -0.57627,0.65633 -1.0477,1.29134 -1.0477,1.41116 0,0.20417 31.52759,0.509 32.56193,0.31487 0.26267,-0.0494 1.33635,-0.0895 2.3861,-0.0895 z m 47.70994,-2.5094 0.77566,-2.33014 0.15737,-3.31601 c 0.16542,-3.4931 -0.0456,-4.07589 -0.77915,-2.15091 -0.24429,0.64077 -0.65187,1.64901 -0.90583,2.24054 -0.25371,0.59149 -0.70535,1.66784 -1.0033,2.39189 l -0.54214,1.31645 -0.87885,0.5759 -0.87893,0.57594 -3.00472,0.34546 c -3.51272,0.40386 -7.51414,0.43894 -13.13375,0.11515 l -4.03466,-0.23247 0.0914,-34.80788 0.0912,-34.80786 2.68886,0.01 c 2.99291,0.01 10.66172,0.46453 12.44207,0.73773 l 1.14984,0.17645 1.80332,1.4253 1.80306,1.42531 1.08607,1.87731 c 0.59744,1.0325 1.26468,2.56566 1.48257,3.40694 0.21804,0.84134 0.56551,1.63405 0.77166,1.76164 l 0.37532,0.23195 -0.25493,-0.66486 c -0.14051,-0.3657 -0.40238,-2.20699 -0.58238,-4.09179 -0.49725,-5.20868 -1.41992,-7.32544 -3.70943,-8.50939 l -1.02106,-0.52798 -17.71062,-0.20449 c -9.74102,-0.11246 -17.71071,-0.11721 -17.71071,-0.0108 0,0.10677 0.81337,0.71605 1.80747,1.354 l 1.80764,1.15991 0.47672,0.93876 0.47682,0.93875 0.21738,3.76407 c 0.11958,2.07028 0.30895,12.39466 0.42054,22.94315 0.11158,10.54842 0.27025,19.66293 0.35235,20.25444 0.0823,0.59148 0.18489,5.70038 0.22774,11.35306 l 0.0782,10.2776 -0.96063,1.25963 c -0.52844,0.69282 -0.96086,1.31077 -0.96095,1.3732 0,0.0625 8.26024,0.0331 18.35636,-0.0657 l 18.35653,-0.17925 z m 154.50459,0.54822 -2.3544,-2.31966 -0.01,-7.26982 c -0.01,-9.74549 -0.3301,-29.3689 -0.5279,-31.84106 l -0.1586,-1.98661 -0.9375,-2.11956 c -1.102,-2.49158 -2.5262,-4.43722 -4.7954,-6.55034 l -1.6426,-1.52999 -2.6015,-1.2744 c -1.4642,-0.75164 -2.9786,-1.14905 -4.5706,-1.47763 l -1.9695,-0.20326 -0.01,26.84698 -0.01,26.84699 -0.6616,1.43394 c -0.3641,0.78868 -1.0865,1.82502 -1.6056,2.30301 -0.5188,0.47803 -0.9434,1.00228 -0.9434,1.16509 v 0.296 h 12.5711 12.5709 z m 65.1558,0.79611 -1.4684,-1.52357 -0.7573,-1.74837 -0.757,-1.74839 v -47.85971 -47.85962 l 0.743,-1.20199 c 0.4086,-0.66108 1.8968,-2.25519 3.3073,-3.54248 l 2.5644,-2.34047 -12.0006,0.0945 -12.0006,0.0946 -0.1101,0.89622 c -0.061,0.49292 -0.4322,2.02542 -0.825,3.40561 -0.3929,1.38016 -1.0145,3.55797 -1.3812,4.83954 -0.3663,1.28161 -1.1836,4.42732 -1.8164,6.9905 -0.6328,2.56317 -1.2924,4.81355 -1.4663,5.00087 -0.1738,0.1873 -0.316,0.73074 -0.316,1.20765 0,0.47689 -0.3082,1.85617 -0.6852,3.06505 -0.3769,1.20888 -0.8614,2.92391 -1.0772,3.81115 -1.0831,4.45845 -3.2937,12.67573 -3.4996,13.00906 -0.1288,0.2084 -0.3539,0.95595 -0.5004,1.66124 -0.2983,1.43677 -9.3707,35.71225 -9.6396,36.05546 -0.1546,0.19718 -0.3912,1.12099 -0.5262,2.05294 -0.1345,0.93194 -0.398,1.78911 -0.5852,1.90477 l -0.3405,0.21033 -0.1278,-0.47084 c -0.07,-0.25895 -0.2996,-1.11609 -0.5091,-1.90476 -0.3597,-1.35242 -0.828,-2.90253 -2.5455,-8.42442 -0.8478,-2.72642 -3.4847,-11.62606 -5.2426,-17.69587 -0.6775,-2.33897 -1.3947,-4.75875 -1.5939,-5.37729 -0.1992,-0.61854 -1.015,-3.30245 -1.8132,-5.96421 -0.7983,-2.66174 -1.688,-5.5655 -1.977,-6.45274 -0.2893,-0.88726 -0.7555,-2.41979 -1.036,-3.40561 -0.2808,-0.98584 -0.8533,-2.92165 -1.2723,-4.30184 -0.4194,-1.38019 -1.0632,-3.55796 -1.4315,-4.83956 -0.6438,-2.2419 -1.1997,-4.08794 -2.8609,-9.49986 -0.4235,-1.38018 -1.0665,-3.55798 -1.429,-4.83957 -0.3624,-1.2816 -1.0164,-3.45941 -1.4532,-4.83956 -0.4368,-1.38018 -0.9924,-3.316 -1.2346,-4.30182 l -0.4403,-1.79244 -11.4169,0.0122 -11.4168,0.0123 -0.1297,0.38838 -0.1295,0.38837 1.3581,0.22042 c 0.7472,0.12125 1.9626,0.54611 2.7012,0.94424 0.7388,0.39813 1.5858,0.72386 1.8822,0.72386 h 0.5388 v 15.70039 15.70039 l 2.7783,0.43079 c 5.462,0.84694 8.3041,1.44787 9.2977,1.96592 1.7099,0.89165 3.6982,1.69263 4.2013,1.69263 h 0.4796 l -0.1441,-5.81835 -0.144,-5.81835 0.3191,0.35144 c 0.1758,0.19329 0.607,1.56132 0.9586,3.04009 0.3516,1.47874 0.9389,3.5416 1.3049,4.58412 0.366,1.04254 0.6655,2.1916 0.6655,2.55348 0,0.36185 0.3318,1.40776 0.7371,2.32417 l 0.7369,1.66625 3.2204,3.28531 3.2203,3.28532 2.0058,3.36161 c 2.2918,3.84042 3.5416,6.7472 4.9268,11.45881 l 0.971,3.30246 0.2878,3.68801 c 0.1585,2.02841 0.2317,3.84932 0.1629,4.04649 -0.068,0.19716 -0.2756,1.9992 -0.4592,4.00451 -2.9437,12.43637 -0.7466,13.14504 2.8433,26.73567 0.5991,2.31873 0.7432,2.19741 1.9175,-1.61318 2.1832,-6.07599 3.6811,-12.40054 5.7433,-18.45479 0.2768,-0.74337 0.9388,-2.80345 1.4714,-4.57795 0.5325,-1.77451 1.2553,-4.11362 1.6065,-5.19804 1.1056,-3.41591 2.0671,-6.47989 3.5995,-11.47156 2.2857,-7.6794 4.8,-15.28735 7.1612,-22.9431 0.819,-2.66176 1.7946,-5.80746 2.1682,-6.99046 0.3735,-1.18301 0.9359,-3.07552 1.2497,-4.20559 0.3137,-1.13006 0.7161,-2.14468 0.894,-2.2547 l 0.3239,-0.20001 0.014,39.17874 0.014,39.17873 -1.3473,1.46704 c -0.7407,0.80688 -1.8713,1.67337 -2.512,1.92555 -0.6406,0.25218 -1.165,0.60025 -1.165,0.7735 v 0.31501 h 13.3386 13.3386 z m -344.69978,0.32185 c -0.73415,-0.45146 -1.66171,-1.1167 -2.06131,-1.47831 l -0.7265,-0.65749 v -32.87141 -32.87136 l 1.06422,-1.46909 c 0.58531,-0.80801 1.3813,-1.6388 1.76886,-1.84625 l 0.70466,-0.37709 4.23577,0.0189 4.23577,0.0189 2.54437,0.45584 2.54436,0.45585 1.39899,0.83629 c 1.84945,1.10558 3.56151,2.72222 4.77507,4.50894 l 0.98829,1.45508 0.62983,2.32684 0.62986,2.32682 -0.17749,2.31234 c -0.0976,1.27178 -0.47577,3.56136 -0.84037,5.08791 l -0.66287,2.77553 -3.04713,2.40851 c -1.67592,1.32467 -4.11257,3.22138 -5.41475,4.21493 -1.30219,0.99354 -3.39048,2.67256 -4.64063,3.73119 -1.25016,1.05865 -2.96748,2.22246 -3.81628,2.58629 -2.06136,0.88363 -2.07578,0.84701 2.13125,5.41639 6.09917,6.62451 12.13509,14.42092 13.9621,18.03447 2.29896,4.54701 2.79944,5.64041 3.49648,7.63937 l 0.78881,2.26208 -0.60055,0.91653 -0.60053,0.91654 -1.3946,0.58549 c -0.76703,0.322 -1.39624,0.70646 -1.39826,0.85433 l -0.009,0.26887 h 5.86125 5.86122 l 1.57735,-1.14294 c 0.86755,-0.62863 1.9,-1.31421 2.29432,-1.52357 0.39435,-0.20934 1.80588,-1.10043 3.13676,-1.98019 l 2.41984,-1.59963 v -1.41287 -1.4129 l -3.33324,-4.15723 c -1.83325,-2.28647 -4.59077,-5.7373 -6.12779,-7.66851 -1.53704,-1.9312 -4.51368,-5.37736 -6.61479,-7.65816 -8.87742,-9.63667 -8.42775,-8.37576 -4.15559,-11.6529 5.3949,-4.13842 7.88094,-6.26593 9.05712,-7.75099 l 1.08953,-1.37563 0.56128,-2.42018 c 0.91376,-3.94004 0.27886,-8.18287 -1.92081,-12.83622 l -1.07101,-2.26571 -2.43566,-2.51626 -2.43568,-2.51628 -1.93029,-1.02762 c -1.06165,-0.56515 -2.51354,-1.17294 -3.22638,-1.35061 -2.44987,-0.61056 -39.43005,-1.48441 -40.29137,-0.95209 l -0.41737,0.25795 0.25537,0.25538 0.25537,0.25537 -0.35848,0.43195 -0.35849,0.43193 1.57905,0.21644 c 0.86847,0.11908 2.16041,0.49367 2.87098,0.8325 l 1.29197,0.61609 v 33.85782 33.85783 l -0.80146,1.29704 c -0.44079,0.71336 -1.20704,1.6549 -1.70279,2.09229 l -0.90138,0.79523 10.39609,1.5e-4 10.39609,1.4e-4 z m 160.49436,0.29256 c 1.16296,-0.30287 2.82415,-0.86472 3.69192,-1.24855 l 1.57762,-0.69789 -2.4515,-1.97329 c -2.84377,-2.81297 -5.20063,-0.71431 -8.1871,1.17101 l -5.19809,0.12616 -5.19811,0.12612 -0.053,-33.40412 -0.0538,-33.40412 2.35466,-0.25218 c 1.29523,-0.13871 3.67929,-0.15035 5.29812,-0.0257 6.87369,-0.075 13.6951,6.26569 16.46516,14.92666 0.53594,1.67593 1.19886,3.61175 1.47296,4.30182 0.27407,0.69009 0.7688,3.02921 1.09949,5.19806 l 0.60111,3.94332 v 4.30184 4.30183 l -0.60249,4.12259 c -0.33143,2.26744 -0.77639,4.65545 -0.98865,5.30671 l -0.38615,1.18411 0.22805,0.90816 c 0.27882,1.11138 3.0733,4.15362 5.09076,5.54225 l 1.48654,1.02321 0.3658,-0.44074 c 1.21247,-1.46092 3.10376,-7.69164 3.99621,-13.16519 l 0.73062,-4.4811 7e-5,-4.53505 1.8e-4,-4.53508 -0.71629,-4.19006 c -1.67585,-9.80257 -5.34152,-17.51871 -10.66311,-22.44552 l -2.13929,-1.98069 -2.86748,-1.4918 c -1.57712,-0.82049 -3.81857,-1.76267 -4.98104,-2.09375 l -2.11355,-0.60195 -16.49032,-0.11826 -16.4905,-0.11831 0.89627,0.39092 c 0.49286,0.21499 1.68921,0.73647 2.65848,1.15886 l 1.76251,0.76796 0.63067,1.43435 0.6305,1.43436 0.0326,10.75459 c 0.018,5.91501 0.19865,20.90193 0.40228,33.30425 l 0.37003,22.54964 -0.37533,0.37553 c -0.20664,0.20653 -0.37547,0.65242 -0.37547,0.99088 v 0.61537 l -0.98588,0.73554 -0.98588,0.73551 14.17444,0.0108 14.17461,0.0108 z m -7.63135,-4.80418 3.47314,-0.31048 1.45593,-0.8182 c 1.77449,-0.99734 1.77253,-0.91012 0.0684,-3.05914 -5.71482,-7.20586 -9.18699,-16.5111 -9.61541,-25.7682 l -0.16583,-3.58486 0.77288,-3.4056 c 1.88973,-8.32788 4.85349,-14.92651 8.68345,-19.33453 l 1.38108,-1.58949 -0.10606,-0.55075 -0.10612,-0.55074 -1.25189,-0.37268 c -0.68826,-0.20497 -1.61541,-0.57879 -2.05989,-0.83071 l -0.80808,-0.45805 -3.31463,0.1031 -3.31431,0.10313 -0.0926,29.93357 c -0.0505,16.46347 -0.0163,30.13522 0.0782,30.38168 0.19858,0.52017 0.32394,0.52302 4.92174,0.11205 z m 58.31254,-28.79901 c 3.10874,-5.71484 -14.42718,-27.96904 -28.74702,-23.93963 l -1.73399,0.48792 0.19311,0.75127 c 0.10614,0.41319 0.69054,2.2031 1.29841,3.97761 0.60794,1.77452 1.25621,4.35561 1.4406,5.73578 0.18441,1.38017 0.50141,3.07297 0.70448,3.76173 l 0.36913,1.25236 v 4.34738 4.34738 l -0.72881,4.25864 c -0.98914,5.78065 -2.63046,11.39072 -4.15692,14.20945 l -0.53538,0.98868 0.47006,0.16101 c 1.12898,0.38667 2.89736,0.41834 6.93812,0.38259 6.67537,-0.059 15.15471,-3.56361 24.48821,-20.72217 z m 45.93903,-1.69474 v -22.58465 h -0.6598 c -7.81257,0 -21.96725,16.45338 -23.91897,22.27579 v 0.87739 0.87736 l 2.19819,3.29881 c 7.91899,11.88357 10.91652,15.1366 18.07868,17.12252 1.2814,0.35535 2.7736,0.66213 3.3161,0.68174 l 0.9858,0.0354 z m -88.04526,-0.35847 0.0367,-7.34898 -0.66439,-2.5094 c -0.88048,-3.32545 -0.98637,-3.43576 -1.51963,-1.58269 -0.25045,0.87049 -0.7447,2.46995 -1.09803,3.55435 l -0.64257,1.9717 -0.01,4.12258 -0.01,4.12259 0.7759,2.68863 c 0.42689,1.47877 1.05243,3.33392 1.39061,4.1226 l 0.61462,1.43393 0.54442,-1.61317 0.54426,-1.6132 z m -101.41466,3.60647 c 1.18299,-0.20678 2.87684,-0.37868 3.76408,-0.382 l 1.61329,-0.009 0.98589,-2.30834 c 0.54205,-1.2696 0.98571,-2.56149 0.98571,-2.87092 v -0.56262 l -0.82811,0.15019 c -0.45555,0.0827 -3.39975,0.26522 -6.54244,0.40582 -6.86661,0.3072 -6.25191,-0.0234 -6.25191,3.36278 0,3.59897 -0.55264,3.40419 6.27349,2.21114 z m 44.09371,-0.01 c 0.98605,-0.18333 2.7084,-0.34294 3.82776,-0.3547 l 2.03521,-0.0213 0.74308,-0.94457 c 0.40855,-0.5195 0.74291,-1.18606 0.74291,-1.48123 0,-0.29519 0.32474,-1.06202 0.72165,-1.70404 l 0.72133,-1.16734 -0.48528,-0.18619 c -0.26683,-0.10242 -2.64837,-0.0467 -5.29201,0.1237 -2.64388,0.17042 -5.66236,0.31684 -6.70803,0.32539 l -1.90058,0.0155 0.10451,3.08843 0.10459,3.08842 1.7963,-0.22434 c 0.98784,-0.12343 2.60284,-0.37433 3.58856,-0.55766 z M 752.213,396.94516 c 2.2788,-1.66244 8.25327,-6.44245 11.36815,-9.09533 l 3.22639,-2.74781 0.79012,-2.90615 0.79009,-2.90616 -0.19219,-2.33016 c -0.24734,-2.99892 -1.05498,-5.26661 -2.38299,-6.69083 l -1.05766,-1.13428 -2.20005,-1.01422 -2.20008,-1.01425 -5.55655,-0.11652 -5.55651,-0.11652 -0.4264,0.70187 -0.42639,0.70188 -0.0758,14.32568 c -0.0417,7.87911 0.0387,14.511 0.17868,14.73755 l 0.25457,0.41188 h 1.18052 1.18054 z m 216.95985,-11.07961 v -1.02088 l -2.64689,-3.50446 -2.64691,-3.50445 -3.89081,-3.70149 c -20.5737,-19.57283 -41.54763,-9.28578 -39.00329,-7.34508 1.42401,1.0861 4.139,4.45378 5.5468,6.88008 l 0.91501,1.57694 6.07549,0.0503 c 10.42755,-0.14113 15.51333,3.72057 21.95876,12.10717 1.2435,1.64972 2.89695,3.8417 3.67439,4.871 0.77753,1.02931 1.41375,2.00255 1.41375,2.16273 0,0.52787 1.55782,2.23928 2.03846,2.23928 h 0.47095 z m -251.84337,-19.7472 c 2.53262,-3.09638 3.82904,-4.9262 3.52049,-4.96895 -0.15793,-0.022 -4.48141,-0.10147 -9.60776,-0.17681 l -9.32063,-0.13706 -3.94336,-0.4839 -3.94334,-0.48392 -0.40838,0.39188 -0.40839,0.39184 -0.24588,3.31602 -0.24589,3.31599 h 11.82511 11.82509 z"
         id="path1"
         sodipodi:nodetypes="ssscccssccsccccssscsccccsccssccccccccccscsscscccssscsssccssscsscsscssscccssscccssssssssssssssscsssssssssccscsscccccsssccccsscccsssssssssscccssscccsscsscsscsssssccccccccscscccsscsscssssscsscssssscssscccccsccssccsscsscsssssscssscccccsscsssscccccssscssssscccccsssssscccssscscccccsccsscccsscssscccccccssccsssccsscsscccsssscssscccsscscccsssscssscssscssccscccsscccssssssssscsssssssssssssscsssssscsscsccsssscsccccccsscscsssscccccccscccssscssccccccccsscssccsscscscccsscssccsccccccsscsssscccccccccsccccccsscsscccccssscssscsssccccsssscccssccccscccssscssscssscccsssscsscccccsscssccccccsssccccccccccsscccssssssssssssscssssssssssssssccccccsscccssscccssssscccsscssssssssssssscccssscccccscccsccccccsscccsscssssssscccsscccssscccssssscssccccssccccccscccsscccccscscccccscssscccsscsscsscccsscsscccsscccsscssccccccccscscsscccsscccccccssccssscccsscsssccscccsssccccssscccsscccccccssccsscccccsssccsccccccccscccsscccccccssccccccccsssccssssccscccccccccccs" /></g><text
       xml:space="preserve"
       id="text3"
       style="font-weight:bold;font-size:32px;font-family:'DejaVu Sans';-inkscape-font-specification:'DejaVu Sans, Bold';text-align:center;writing-mode:lr-tb;direction:ltr;white-space:pre;shape-inside:url(#rect4);fill:#b1b1b1;stroke:#000000"><tspan
         x="727.98633"
         y="474.80859"
         id="tspan2">__FRONT_TITLE__</tspan></text></g></svg>
