<?xml version="1.0" encoding="UTF-8" standalone="no"?>
<!-- Created with Inkscape (http://www.inkscape.org/) -->

<svg
   width="326.10391mm"
   height="84.516006mm"
   viewBox="0 0 326.10391 84.516006"
   version="1.1"
   id="svg1"
   inkscape:version="1.4 (e7c3feb100, 2024-10-09)"
   sodipodi:docname="fdlogo.svg"
   xmlns:inkscape="http://www.inkscape.org/namespaces/inkscape"
   xmlns:sodipodi="http://sodipodi.sourceforge.net/DTD/sodipodi-0.dtd"
   xmlns="http://www.w3.org/2000/svg"
   xmlns:svg="http://www.w3.org/2000/svg">
  <sodipodi:namedview
     id="namedview1"
     pagecolor="#ffffff"
     bordercolor="#000000"
     borderopacity="0.25"
     inkscape:showpageshadow="2"
     inkscape:pageopacity="0.0"
     inkscape:pagecheckerboard="0"
     inkscape:deskcolor="#d1d1d1"
     inkscape:document-units="mm"
     inkscape:zoom="0.55307694"
     inkscape:cx="691.58551"
     inkscape:cy="193.46314"
     inkscape:window-width="1920"
     inkscape:window-height="1131"
     inkscape:window-x="0"
     inkscape:window-y="0"
     inkscape:window-maximized="1"
     inkscape:current-layer="layer1" />
  <defs
     id="defs1">
    <clipPath
       clipPathUnits="userSpaceOnUse"
       id="clipPath4">
      <path
         id="path4"
         style="fill:#fbff0c;fill-opacity:1;stroke:none;stroke-width:1.05833"
         d="m 195.80327,88.530769 c -8.20287,-0.222703 -18.1441,-9.557086 -19.36367,-18.054056 3.45765,-10.18077 13.31581,-16.323029 19.17658,-16.37026 9.04137,-0.07287 16.24333,7.171542 16.74444,15.154182 0.50111,7.982638 -4.24213,19.604482 -16.55735,19.270134 z M 141.0097,98.633558 c 15.0846,-0.352931 20.40653,-7.956823 27.87621,-17.586336 7.56323,11.137329 16.1622,18.212269 28.99875,18.334689 13.80494,0.131648 25.06486,-15.812641 24.88279,-28.531021 -0.18207,-12.718381 -8.81947,-27.572515 -26.47305,-27.876217 -13.99491,-0.240758 -21.5671,11.447105 -26.56659,17.212162 -4.06405,-6.395707 -15.17885,-17.27694 -27.40849,-17.77342 -12.22964,-0.49648 -26.74138,12.9619 -27.4085,26.005321 -0.6671,13.043422 9.87504,30.594406 26.09888,30.214822 z M 126.13615,68.51228 c 0.50111,-7.982638 7.70307,-15.227046 16.74444,-15.154183 5.86077,0.04723 15.71894,6.189491 19.17658,16.370261 -1.21957,8.496969 -11.1608,17.831353 -19.36367,18.054055 -12.31522,0.334349 -17.05846,-11.287495 -16.55735,-19.270133 z" />
    </clipPath>
  </defs>
  <g
     inkscape:label="Layer 1"
     inkscape:groupmode="layer"
     id="layer1"
     transform="translate(115.09376,-24.077083)">
    <path
       style="fill:#c3c3c3;fill-opacity:1;stroke:none;stroke-width:0.0264583;stroke-dasharray:none;stroke-opacity:1"
       d="m -114.98055,108.35036 c -0.24483,-0.24503 -0.0828,-0.52425 0.39173,-0.67484 1.36668,-0.43377 3.56318,-3.11831 4.1012,-5.01244 l 0.38239,-1.34623 0.31692,-36.197299 0.31692,-36.19731 -0.49802,-0.57978 c -0.2739,-0.31887 -0.72477,-0.99649 -1.00194,-1.50582 -0.27716,-0.50932 -0.78832,-1.27057 -1.13592,-1.69165 l -0.63199,-0.76562 0.21334,-0.18199 c 0.11734,-0.1001 3.42803,-0.0936 7.3571,0.0143 5.201742,0.14295 42.501721,0.56631 45.277793,0.51391 0.164247,-0.003 0.451746,0.38132 0.638888,0.85426 0.187142,0.47295 0.488734,1.03849 0.670205,1.25677 0.8677,1.04371 4.386621,8.69946 4.741658,10.31593 0.111269,0.50661 0.3536,1.16098 0.538513,1.45415 0.184912,0.29318 0.421953,0.94977 0.526757,1.45909 0.104804,0.50932 0.414147,1.36778 0.68743,1.90769 1.064698,2.10345 0.651168,2.24518 -1.488613,0.51021 -1.84645,-1.49714 -4.257256,-3.211 -6.898927,-4.90451 l -1.872961,-1.2007 -1.566623,-0.41039 -1.566623,-0.41039 -4.365626,-0.25576 c -2.401094,-0.14067 -7.223125,-0.25355 -10.715626,-0.25084 l -6.35,0.005 -1.852083,0.26283 c -1.018646,0.14456 -2.535769,0.33571 -3.371384,0.42478 l -1.519301,0.16195 -0.254844,0.30707 -0.254844,0.30707 -0.03888,5.8999 -0.03888,5.89991 0.232153,0.23215 0.232153,0.23215 6.013684,0.27512 6.013685,0.27511 11.442191,-0.0581 c 18.285577,-0.0929 20.873443,-0.0715 27.581775,0.22825 l 6.349999,0.28374 1.535117,0.68671 c 3.36895,1.50705 6.527421,4.97907 7.613269,8.36904 0.117857,0.36795 0.396513,1.16764 0.619235,1.7771 2.519603,6.89464 1.13634,10.76956 -5.850584,16.38917 l -2.461828,1.98006 v 0.50425 0.50424 l 2.315104,2.69052 c 1.273307,1.47978 3.505729,4.07431 4.960937,5.7656 2.705646,3.14461 4.07647,4.77501 5.657621,6.72897 l 0.895121,1.10617 -0.167113,-8.86354 c -0.09191,-4.87495 -0.210967,-10.41136 -0.264568,-12.30313 -0.0536,-1.89177 -0.113313,-7.41212 -0.132695,-12.26744 l -0.03524,-8.82785 -0.938542,-0.85968 c -0.516198,-0.47281 -2.004479,-1.49063 -3.307292,-2.2618 -1.302812,-0.77118 -2.368743,-1.47194 -2.368735,-1.55727 8e-6,-0.0853 20.80618,-0.14635 46.235938,-0.13562 l 46.235921,0.0195 2.10124,0.59413 c 2.12955,0.60214 2.59003,0.80122 5.75303,2.48719 l 1.76885,0.94285 1.373,-0.5217 c 16.43332,-6.24417 31.680055,5.50914 36.622215,13.96221 l 0.48816,0.83495 0.55301,-0.26509 c 0.30414,-0.14581 1.20785,-1.05058 2.0082,-2.0106 8.6194,-10.33894 14.09094,-13.38407 22.35729,-14.13845 l 0.79375,-0.0724 0.0691,-10.62345 0.0691,-10.62346 -0.86287,-0.72758 c -0.47458,-0.40016 -1.2796,-0.89562 -1.78892,-1.10101 -3.06761,-1.23703 -6.43562,-3.16254 -6.19964,-3.54436 l 0.13333,-0.21573 12.12516,-0.0143 12.12516,-0.0143 0.29342,0.35356 c 0.16139,0.19446 0.48015,1.1587 0.70838,2.14278 0.22822,0.98407 0.57934,2.22597 0.78027,2.75978 0.20093,0.53381 0.61529,1.86354 0.92077,2.95494 0.30549,1.09141 0.68417,2.34157 0.84152,2.77813 0.15734,0.43656 0.44269,1.38906 0.63409,2.11667 0.19141,0.7276 0.66437,2.33494 1.05103,3.57187 0.38666,1.23693 0.86686,2.84427 1.06713,3.57188 0.20026,0.7276 0.55217,1.91823 0.78201,2.64583 0.22985,0.7276 0.64803,2.09682 0.92929,3.04271 1.39429,4.68887 1.63606,5.48255 1.89402,6.21771 0.15318,0.43656 0.42868,1.38906 0.61224,2.11666 0.35675,1.41423 2.09002,7.14931 2.55882,8.46667 0.15535,0.43656 0.43263,1.38906 0.61617,2.11667 0.66804,2.64826 2.90549,9.51778 3.16103,10.45104 l 0.32602,1.19062 0.32377,-0.60073 c 0.25861,-0.47982 2.81675,-9.9541 7.47436,-27.50891 0.29957,-1.12907 0.75937,-2.82676 1.02181,-3.77265 0.26243,-0.94588 0.73954,-2.73182 1.06024,-3.96875 0.84213,-3.24799 1.56858,-5.97056 2.11794,-7.9375 0.26418,-0.94588 0.67286,-2.43417 0.90817,-3.30729 0.23532,-0.87313 0.67328,-2.48047 0.97324,-3.57188 0.29997,-1.0914 0.71264,-2.75076 0.91706,-3.68746 0.20441,-0.9367 0.48674,-1.81817 0.62739,-1.95882 l 0.25573,-0.25573 5.50243,-0.0256 c 3.02634,-0.014 8.53853,0.034 12.24931,0.10674 l 6.74687,0.13229 -1.3229,0.82688 c -1.8172,1.13583 -5.44907,4.35536 -6.30268,5.58712 l -0.70315,1.01465 -0.008,35.05182 -0.009,35.051809 0.52745,1.09171 0.52746,1.09171 0.99958,0.76579 c 1.41273,1.08231 2.93268,2.00756 4.24072,2.58152 1.16523,0.51128 1.46582,0.9405 0.66146,0.94451 -0.9986,0.005 -32.00139,0.008 -32.82395,0.003 l -0.87551,-0.005 0.16352,-0.26458 c 0.0899,-0.14552 0.36486,-0.26568 0.61093,-0.26701 0.69592,-0.004 5.95916,-2.22249 6.95996,-2.93397 0.49268,-0.35024 1.1339,-0.76854 1.42495,-0.92954 l 0.52916,-0.29274 0.0677,-22.130039 0.0677,-22.13004 h -0.2661 c -0.14635,0 -0.26683,0.20836 -0.26772,0.46303 -0.001,0.28355 -3.53293,10.03729 -3.95702,11.57552 -0.24631,0.8934 -1.03068,3.16588 -1.36985,3.96875 -0.31918,0.75553 -3.66118,10.69125 -3.91582,11.64166 -0.54977,2.05208 0.20381,-0.9119 -5.6063,16.470319 -1.28549,3.84585 -1.81813,4.83308 -1.81813,3.36984 0,-0.91519 -0.24262,-0.60007 -1.0855,-3.70057 -0.61652,-1.82508 -3.01954,-12.574139 -4.26545,-10.084799 -0.38428,0.78352 -1.25176,2.28744 -1.92774,3.34204 l -1.22906,1.91746 -2.33167,2.360709 -2.33167,2.3607 0.61964,0.73641 c 0.67742,0.80507 4.01126,2.81697 6.00202,3.62209 2.77887,1.12386 2.12402,1.16893 -15.00884,1.03297 l -15.05128,-0.11943 -0.28221,-0.28546 -0.2822,-0.28545 0.46302,-0.26125 c 0.25466,-0.14369 0.46302,-0.3744 0.46302,-0.51269 v -0.2518 h -0.79195 c -0.23218,0 -7.39031,-0.10395 -16.80662,-12.829769 l -2.32863,-3.14707 -0.76814,0.91082 c -0.42247,0.50095 -1.58404,1.98238 -2.5813,3.29206 l -1.81317,2.38125 -3.30627,3.241149 c -1.81845,1.78263 -3.44745,3.24115 -3.62,3.24115 -0.17255,0 -0.629765,0.22301 -1.016025,0.49558 -2.77965,1.96146 -14.30788,5.61555 -22.92731,2.50413 -1.01864,-0.3677 -2.33114,-0.79023 -2.91666,-0.93896 l -1.06459,-0.27041 -2.24271,1.05055 -2.2427,1.05055 -1.98438,0.29433 -1.98437,0.29433 -44.582289,0.0476 c -24.520261,0.0262 -44.750958,0.0301 -44.957104,0.009 l -0.374811,-0.0386 1.036269,-0.94123 c 0.569949,-0.51768 0.917208,-0.89863 0.771687,-0.84654 -0.983201,0.35189 -3.288829,1.54385 -3.430873,1.77368 l -0.172232,0.27868 h -4.358508 -4.358509 l -0.974417,-0.40714 c -1.437577,-0.60066 -1.818395,-1.80238 -1.082784,-3.41687 l 0.307053,-0.67391 h 0.566072 c 0.31134,0 0.698573,0.1325 0.860519,0.29445 l 0.294446,0.29444 0.287637,-0.17777 c 0.686826,-0.42448 0.0993,-2.17698 -2.311013,-6.893409 -0.803477,-1.57222 -3.633739,-5.44182 -5.630957,-7.69877 -0.785226,-0.88734 -2.342969,-2.67328 -3.461652,-3.96875 -1.118682,-1.29547 -2.531615,-2.83165 -3.139853,-3.41373 l -1.105887,-1.05834 0.158556,8.59896 c 0.08721,4.72943 0.160688,9.70324 0.163292,11.052909 l 0.0047,2.45394 0.595312,0.2571 c 0.327422,0.1414 1.42875,0.79452 2.447396,1.45136 1.018646,0.65685 2.536693,1.55196 3.373438,1.98912 0.836745,0.43717 1.521354,0.85267 1.521354,0.92334 0,0.0707 -6.853121,0.12848 -15.229157,0.12848 h -15.229163 l 0.145407,-0.23527 c 0.07997,-0.1294 0.473954,-0.31652 0.875511,-0.41582 0.401557,-0.0993 1.9428,-0.75977 3.424985,-1.46773 l 2.69488,-1.28719 0.395063,-0.6121 0.395063,-0.6121 -0.04723,-24.300009 -0.04723,-24.30001 -1.058335,-0.40497 c -0.582083,-0.22273 -1.570915,-0.46234 -2.197403,-0.53248 l -1.139071,-0.12751 -0.528422,0.47822 c -0.290632,0.26302 -1.080679,1.40662 -1.75566,2.54134 l -1.227237,2.06313 -3.45527,0.004 c -3.670672,0.004 -16.377364,0.29704 -16.481841,0.37953 -0.03409,0.0269 -0.06793,9.32704 -0.07519,20.66693 l -0.0132,20.617979 1.247623,1.08235 c 0.686193,0.59529 2.356313,1.65894 3.711379,2.36368 l 2.463756,1.28133 1.088881,1.29135 c 0.598884,0.71024 1.036132,1.3441 0.971663,1.40857 -0.149349,0.14934 -30.109289,0.28664 -30.257149,0.13865 z M 11.920356,103.06565 C 12.051051,94.901231 11.697841,72.717901 11.20895,58.385961 l -0.164791,-4.8309 -1.617949,-1.15228 c -1.667847,-1.18782 -4.370414,-2.66124 -4.550665,-2.48099 -0.05609,0.0561 0.402237,0.46359 1.018496,0.90557 l 1.12047,0.8036 0.778834,1.95649 0.778835,1.95649 0.112236,3.06858 0.112237,3.06858 -0.450562,0.1729 c -0.247808,0.0951 -1.082222,0.24714 -1.854252,0.33787 l -1.403692,0.16498 -0.293589,-1.36896 c -0.161474,-0.75293 -0.293589,-1.55026 -0.293589,-1.77184 0,-0.32358 -1.250856,-2.74607 -1.417939,-2.74607 -0.02461,0 -0.697902,-0.24365 -1.496213,-0.54145 l -1.451473,-0.54145 -3.770313,-0.15767 -3.770312,-0.15767 v 11.15927 11.15928 l 1.256771,-0.13473 c 0.691224,-0.0741 3.459427,-0.2603 6.151562,-0.41377 2.692136,-0.15346 5.527617,-0.32726 6.301069,-0.3862 l 1.406276,-0.10718 -0.175048,0.84255 c -0.09628,0.46341 -0.352966,1.19975 -0.570421,1.63631 -0.217454,0.43656 -0.563524,1.34503 -0.769042,2.01882 -0.495267,1.62372 -0.660169,1.72076 -3.282417,1.93176 -2.813848,0.22641 -7.728235,1.06232 -9.128125,1.55265 l -1.058333,0.37069 -0.06967,8.90315 -0.06967,8.903139 h 5.651054 5.651054 l 0.403336,-0.46302 c 0.221834,-0.25466 0.469431,-0.76068 0.550215,-1.12448 0.08078,-0.3638 0.461553,-1.494899 0.846154,-2.513539 0.3846,-1.01865 0.805298,-2.19105 0.934885,-2.60533 0.248122,-0.79325 0.731129,-1.49571 1.028432,-1.49571 0.307441,0 2.322114,1.95964 2.63425,2.56229 l 0.299326,0.57792 -1.33e-4,2.597079 -1.34e-4,2.59708 -0.547335,1.44007 c -0.301034,0.79203 -0.777224,1.76291 -1.0582,2.15751 -1.01185,1.42101 -0.477052,1.12996 1.209347,-0.65816 l 1.719372,-1.82308 z m 31.063219,2.81527 1.21737,-1.38907 0.29062,-1.05833 0.29061,-1.05833 -0.16772,-7.805209 c -0.0923,-4.29287 -0.28837,-11.19849 -0.43582,-15.34583 -0.14746,-4.14735 -0.29486,-11.3132 -0.32757,-15.92413 l -0.0595,-8.3835 -0.75868,-0.79155 c -1.582404,-1.65093 -2.799024,-1.74351 -2.025064,-0.1541 l 0.50832,1.0439 0.179464,3.18058 0.17947,3.18058 -0.364674,0.29553 c -0.20057,0.16253 -0.96351,0.37594 -1.695421,0.47424 l -1.330751,0.17873 -0.43321,-1.27358 c -0.238266,-0.70047 -0.504125,-1.59792 -0.590798,-1.99433 -0.08667,-0.39641 -0.462136,-1.16952 -0.834363,-1.71803 l -0.676776,-0.99728 -1.174759,-0.46145 -1.174758,-0.46145 -4.120039,-0.17765 -4.120039,-0.17765 0.169212,11.08838 0.169212,11.08838 1.903077,-0.0751 c 1.046692,-0.0413 3.391358,-0.1851 5.210368,-0.31954 1.819011,-0.13444 4.319324,-0.27516 5.556251,-0.3127 l 2.248954,-0.0683 -0.0909,0.65239 c -0.05,0.35881 -0.31212,1.18817 -0.582567,1.84301 -0.270444,0.65485 -0.62078,1.69544 -0.778524,2.31244 l -0.286808,1.12182 -0.585831,0.12171 c -0.322207,0.0669 -1.538331,0.19297 -2.702497,0.28006 -2.630142,0.19678 -6.373236,0.83607 -8.466667,1.44605 l -1.5875,0.46256 0.04601,2.75008 c 0.02531,1.51254 0.05507,5.51828 0.06615,8.90164 l 0.02013,6.151559 h 5.779033 5.779033 l 0.723373,-1.91823 c 0.397855,-1.055029 0.885651,-2.334949 1.08399,-2.844269 0.19834,-0.50932 0.51125,-1.40229 0.695357,-1.98438 0.184107,-0.58208 0.428678,-1.17062 0.543498,-1.30787 l 0.20875,-0.24953 0.78485,0.58026 c 0.431674,0.31915 0.890294,0.58027 1.019154,0.58027 0.12885,0 0.4611,0.25062 0.73832,0.55694 l 0.50402,0.55695 -0.005,3.47795 -0.005,3.477949 -0.62528,1.19063 c -0.34391,0.65484 -0.85597,1.51804 -1.13792,1.91822 l -0.512634,0.72761 h 0.26215 c 0.144154,0 0.809904,-0.62508 1.479474,-1.38906 z m 44.46426,0.59075 c 0.58209,-0.14108 2.07037,-0.36691 3.3073,-0.50184 1.10964,-0.0436 2.07644,-0.15487 3.0427,-0.66159 0.43657,-0.22894 0.99646,-0.41698 1.24421,-0.41788 0.24774,-9e-4 1.3611,-0.48124 2.47412,-1.06742 l 2.02367,-1.06579 1.728195,-1.5139 c 4.13269,-3.620249 4.74287,-4.188679 5.4944,-5.118449 0.43656,-0.54011 1.76904,-2.12276 2.96107,-3.51701 l 2.16733,-2.53499 2.44225,-4.29985 c 1.34325,-2.36491 2.78634,-4.95469 3.20689,-5.75505 2.61194,-4.97095 9.47316,-16.16193 19.02916,-17.81982 l 2.02546,-0.35139 1.67871,0.10272 c 7.81814,0.47839 14.16828,7.09634 15.56013,16.2164 l 0.30286,1.98438 -0.16445,1.98437 c -0.0904,1.09141 -0.3394,2.57969 -0.55326,3.30729 l -0.38882,1.32292 0.0757,7.48551 0.0757,7.485509 0.81723,-0.60635 c 0.44946,-0.33348 1.6235,-1.528549 2.60894,-2.655699 l 1.79172,-2.04936 1.42595,-2.58081 1.42594,-2.58082 v -0.66876 c 0,-0.36782 0.16798,-0.90859 0.37329,-1.20171 0.36753,-0.52473 1.25683,-5.62291 1.52539,-7.12543 0.26855,-1.50253 0.22434,-1.01664 0.26636,-1.85208 0.042,-0.83544 0.009,-1.81736 -0.1332,-3.145 -0.14234,-1.32764 -0.72254,-4.0649 -0.82895,-4.7925 -0.10641,-0.7276 -0.48013,-1.95152 -0.83047,-2.71982 -0.35035,-0.7683 -0.63699,-1.5072 -0.63699,-1.642 0,-0.30469 -1.17546,-2.30853 -2.74659,-4.6822 l -1.194,-1.8039 -2.0646,-2.01552 c -6.54986,-6.28437 -12.05477,-7.46258 -20.45792,-6.70685 -6.24362,0.46892 -9.96657,3.14714 -14.17713,7.36594 -1.90645,1.91018 -4.0223,4.16535 -4.70189,5.0115 -0.67959,0.84615 -1.35452,1.67959 -1.49984,1.85209 -1.27522,1.5137 -4.75178,6.0823 -4.75178,6.24438 0,0.11329 -0.23813,0.48055 -0.52917,0.81612 -0.29104,0.33558 -0.52917,0.75593 -0.52917,0.93413 0,0.1782 -0.19099,0.48251 -0.42444,0.67625 -0.23344,0.19374 -0.5362,0.59527 -0.67281,0.89229 -0.34677,0.75395 -0.74378,1.3936 -1.81316,2.92129 -0.50933,0.7276 -1.04511,1.53101 -1.19063,1.78535 -1.9641,3.43277 -11.904595,19.313729 -25.558605,15.1695 -1.8582,-0.56401 -3.65433,-1.55444 -5.34891,-2.94951 l -1.53643,-1.26487 -0.9098,-1.37067 c -0.50039,-0.75387 -0.9098,-1.45247 -0.9098,-1.55244 0,-0.19692 -1.08217,-1.79625 -1.36168,-2.01242 -0.0941,-0.0728 -0.30969,-0.66807 -0.47912,-1.32292 -0.16944,-0.65484 -0.46782,-1.66687 -0.66308,-2.24896 -0.19525,-0.58208 -0.49074,-2.01083 -0.65663,-3.175 l -0.30161,-2.11666 0.26481,-2.01472 c 0.14565,-1.10809 0.45627,-2.53684 0.69026,-3.175 0.234,-0.63815 0.49348,-1.39841 0.57663,-1.68945 0.0832,-0.29104 0.44787,-0.92839 0.81049,-1.41634 l 0.6593,-0.88717 -0.30559,-1.85045 c -0.56221,-3.40426 -2.8867,-6.1124 -3.90298,-7.15698 -0.48487,-0.49837 -1.15163,-0.62116 -1.15163,-0.21207 0,0.13803 -0.31097,0.58451 -0.69103,0.99219 -6.71191,7.19958 -10.45457,24.11485 1.48131,37.61538 l 1.72325,1.949139 c 2.06718,1.1905 3.8329,2.78809 6.01927,3.64936 2.89175,1.41752 9.07767,2.89458 12.76614,2.10536 z m 49.278645,-1.93221 1.12448,-1.08382 v -2.85533 -2.855329 l -0.33072,-0.0169 c -4.76952,-0.24362 -8.63404,-3.43975 -10.15999,-4.89836 -1.66005,-1.5868 -8.40311,-11.08625 -8.42131,-11.86374 -0.003,-0.1334 -0.14405,-0.28866 -0.31318,-0.34504 l -0.30749,-0.1025 -1.7812,3.12316 c -0.97965,1.71774 -2.18073,3.81921 -2.66906,4.66993 -1.11926,1.94987 -1.17509,1.64304 0.76549,4.2066 5.9396,7.846349 14.46138,13.024399 17.9258,13.485689 l 0.66146,0.0881 -0.0603,0.30699 -0.0603,0.307 1.25096,-0.54131 1.25095,-0.54132 z m -75.554665,-2.54459 2.56355,-0.22915 1.07447,-0.60388 c 1.30969,-0.73609 1.30825,-0.6717 0.0504,-2.257819 -4.21781,-5.31834 -6.78051,-12.18614 -7.09666,-19.01842 l -0.12243,-2.64583 0.57043,-2.51354 c 1.39487,-6.14645 3.58217,-11.01663 6.40895,-14.27 l 1.0193,-1.17313 -0.0783,-0.40649 -0.0783,-0.40648 -0.92394,-0.27505 c -0.50816,-0.15128 -1.19234,-0.42718 -1.52038,-0.61311 l -0.59644,-0.33807 -2.44627,0.0761 -2.44626,0.0761 -0.0683,22.09271 c -0.0376,12.15099 -0.0115,22.241539 0.0578,22.423439 0.14646,0.38392 0.23899,0.38602 3.63238,0.0827 z M 104.21002,80.739541 c 2.29822,-4.21578 -10.648205,-20.64277 -21.216985,-17.66884 l -1.27981,0.36012 0.14249,0.55447 c 0.0784,0.30497 0.50962,1.62604 0.95833,2.93573 0.44871,1.30969 0.92717,3.21469 1.06325,4.23333 0.13608,1.01865 0.37004,2.26802 0.51992,2.77638 l 0.2725,0.9243 v 3.20862 3.20862 l -0.53792,3.14313 c -0.73016,4.26645 -1.94147,8.407 -3.06807,10.4874 l -0.39515,0.72969 0.34693,0.11883 c 0.83323,0.28539 2.13922,0.35741 5.1208,0.28239 6.37664,-0.1605 10.92773,-2.18582 18.073715,-15.29417 z m 33.90552,-1.25081 v -16.66875 h -0.48684 c -9.46118,0.6503 -13.41301,9.61099 -18.03398,16.45734 v 0.64756 0.64756 l 1.62242,2.43471 c 5.8446,8.77075 8.43728,11.15514 13.72341,12.62087 0.94588,0.26227 2.04722,0.48869 2.44739,0.50316 l 0.7276,0.0263 z m -64.982305,-0.26458 0.0271,-5.42396 -0.49036,-1.85209 c -0.64983,-2.45438 -0.72799,-2.53578 -1.12162,-1.16811 -0.1849,0.64246 -0.54959,1.82296 -0.81041,2.62332 l -0.47422,1.45521 -0.007,3.04271 -0.007,3.04271 0.57267,1.98437 c 0.31497,1.09141 0.77683,2.46063 1.02636,3.04271 l 0.45369,1.05833 0.40174,-1.19062 0.40174,-1.19063 z m -121.8695,-1.91823 c 1.681878,-1.22698 6.091386,-4.7549 8.390359,-6.71287 l 2.381249,-2.02805 0.583148,-2.14491 0.583147,-2.1449 -0.141845,-1.7198 c -0.182554,-2.21338 -0.778652,-3.88706 -1.758795,-4.93821 l -0.780616,-0.83717 -1.623769,-0.74856 -1.623769,-0.74857 -4.101042,-0.086 -4.101042,-0.086 -0.314707,0.51803 -0.314707,0.51802 -0.05599,10.57318 c -0.03079,5.81524 0.02855,10.70996 0.131885,10.87716 l 0.187876,0.30399 h 0.871299 0.871299 z m 160.128895,-8.17767 v -0.75347 l -1.95356,-2.5865 -1.95355,-2.58649 -2.87163,-2.73191 c -15.184645,-14.44586 -30.664585,-6.85344 -28.786655,-5.42108 1.05093,0.80159 3.0548,3.28713 4.09383,5.07788 l 0.67531,1.16388 4.48406,0.0371 c 7.69616,-0.10417 11.44971,2.74601 16.206815,8.93579 0.91772,1.21759 2.13811,2.83539 2.71198,3.59509 0.57387,0.7597 1.0434,1.478 1.0434,1.59621 0,0.38961 1.14982,1.65272 1.50449,1.65272 h 0.34759 z"
       id="path36"
       sodipodi:nodetypes="ssscccssccsccccssscsccccsccssccccccccccscsscscccssscsssccssscsscsscssscccssscccssssssssssssssscsssssssssccscsscccccsssccccsscccsssssssssscccssscccsscsscsscsssssccccccccscscccsscsscssssscsscssssscssscccccsccssccsscsscsssssscssscccccsscsssscccccssscssssscccccsssssscccssscscccccsccsscccsscssscccccccssccsssccsscsscccsssscssscccsscscccsssscssscssscssccscccsscccssssssssscsssssssssssssscsssssscsscsccsssscsccccccsscscssssccccccccscscsscccsscccccccssccssscccsscsssccscccsssccccssscccsscccccscccsscccccccssccccccccsssccsssscc" />
    <path
       id="path2"
       style="fill:#ffd42a;stroke-width:0.0264583"
       d="m 232.92532,30.869434 -123.7847,0.219108 0.86765,83.222828 122.72998,0.93534 z m -103.41178,11.596191 3.175,4.365625 3.53296,5.031591 2.26902,6.098112 -6.72802,4.745297 -4.63021,-9.525 -5.82083,-5.291667 z m 81.88854,34.13125 0.13229,17.330208 1.05834,7.805207 -22.88646,-2.51354 5.68854,-3.307292 0.39688,-9.525 z"
       clip-path="url(#clipPath4)"
       transform="translate(-56.834215,8.48882)"
       sodipodi:nodetypes="cccccccccccccccccccc" />
    <path
       style="fill:#000000"
       d="m -114.9786,108.34574 c -0.24483,-0.24503 -0.0828,-0.52425 0.39172,-0.67484 1.36669,-0.43377 3.56318,-3.11831 4.1012,-5.01244 l 0.38239,-1.34623 0.31692,-36.197299 0.31692,-36.19731 -0.49801,-0.57978 c -0.27391,-0.31887 -0.72478,-0.99649 -1.00194,-1.50582 -0.27716,-0.50932 -0.78833,-1.27057 -1.13592,-1.69165 l -0.63199,-0.76562 0.21334,-0.18199 c 0.11734,-0.1001 3.42803,-0.0936 7.35709,0.0143 5.201747,0.14295 42.501725,0.56631 45.277797,0.51391 0.164246,-0.003 0.451746,0.38132 0.638888,0.85426 0.187142,0.47295 0.488734,1.03849 0.670204,1.25677 0.867701,1.04371 4.386622,8.69946 4.741659,10.31593 0.111269,0.50661 0.353599,1.16098 0.538512,1.45415 0.184913,0.29318 0.421954,0.94977 0.526758,1.45909 0.104803,0.50932 0.414147,1.36778 0.68743,1.90769 1.064697,2.10345 0.651167,2.24518 -1.488613,0.51021 -1.84645,-1.49714 -4.257256,-3.211 -6.898928,-4.90451 l -1.87296,-1.2007 -1.566624,-0.41039 -1.566623,-0.41039 -4.365624,-0.25576 c -2.401094,-0.14067 -7.223125,-0.25355 -10.715626,-0.25084 l -6.35,0.005 -1.852083,0.26283 c -1.018646,0.14456 -2.535769,0.33571 -3.371384,0.42478 l -1.519301,0.16195 -0.254844,0.30707 -0.254844,0.30707 -0.03888,5.8999 -0.03888,5.89991 0.232153,0.23215 0.232153,0.23215 6.013684,0.27512 6.013685,0.27511 11.442191,-0.0581 c 18.285576,-0.0929 20.873441,-0.0715 27.581774,0.22825 l 6.35,0.28374 1.535117,0.68671 c 3.36895,1.50705 6.527421,4.97907 7.613269,8.36904 0.117857,0.36795 0.396513,1.16764 0.619235,1.7771 2.519603,6.89464 1.13634,10.76956 -5.850584,16.38917 l -2.461828,1.98006 v 0.50425 0.50424 l 2.315104,2.69052 c 1.273307,1.47978 3.505729,4.07431 4.960937,5.7656 2.705646,3.14461 4.07647,4.77501 5.657621,6.72897 l 0.895121,1.10617 -0.167113,-8.86354 c -0.09191,-4.87495 -0.210967,-10.41136 -0.264568,-12.30313 -0.0536,-1.89177 -0.113313,-7.41212 -0.132695,-12.26744 l -0.03524,-8.82785 -0.938542,-0.85968 c -0.516198,-0.47281 -2.004479,-1.49063 -3.307292,-2.2618 -1.302812,-0.77118 -2.368743,-1.47194 -2.368735,-1.55727 8e-6,-0.0853 20.80618,-0.14635 46.235938,-0.13562 l 46.235916,0.0195 2.10124,0.59413 c 2.12955,0.60214 2.59003,0.80122 5.75303,2.48719 l 1.76885,0.94285 1.373,-0.5217 c 16.43332,-6.244168 31.680045,5.509142 36.622215,13.96221 l 0.48815,0.83495 0.55301,-0.26509 c 0.30415,-0.14581 1.20786,-1.05058 2.00821,-2.0106 8.61939,-10.338941 14.09094,-13.384071 22.35729,-14.13845 l 0.79375,-0.0724 0.0691,-10.62345 0.0691,-10.62346 -0.86287,-0.72758 c -0.47458,-0.40016 -1.2796,-0.89562 -1.78892,-1.10101 -3.06761,-1.23703 -6.43562,-3.16254 -6.19964,-3.54436 l 0.13333,-0.21573 12.12516,-0.0143 12.12516,-0.0143 0.29342,0.35356 c 0.16139,0.19446 0.48015,1.1587 0.70838,2.14278 0.22822,0.98407 0.57934,2.22597 0.78027,2.75978 0.20093,0.53381 0.61528,1.86354 0.92077,2.95494 0.30549,1.09141 0.68417,2.34157 0.84152,2.77813 0.15734,0.43656 0.44269,1.38906 0.63409,2.11667 0.19141,0.7276 0.66437,2.33494 1.05103,3.57187 0.38666,1.23693 0.86686,2.84427 1.06713,3.57188 0.20026,0.7276 0.55217,1.91823 0.78201,2.64583 0.22985,0.7276 0.64803,2.09682 0.92929,3.04271 1.39428,4.68887 1.63605,5.48255 1.89401,6.21771 0.15319,0.43656 0.42869,1.38906 0.61225,2.11666 0.35675,1.41423 2.09002,7.14931 2.55882,8.46667 0.15535,0.43656 0.43262,1.38906 0.61617,2.11667 0.66804,2.648265 2.90549,9.517777 3.16102,10.45104 l 0.32602,1.19062 0.32377,-0.60073 c 0.25861,-0.479823 2.81676,-9.954098 7.47437,-27.50891 0.29956,-1.12907 0.75937,-2.82676 1.02181,-3.77265 0.26243,-0.94588 0.73954,-2.73182 1.06024,-3.96875 0.84213,-3.24799 1.56858,-5.97056 2.11794,-7.9375 0.26418,-0.94588 0.67286,-2.43417 0.90817,-3.30729 0.23532,-0.87313 0.67328,-2.48047 0.97324,-3.57188 0.29997,-1.0914 0.71264,-2.75076 0.91706,-3.68746 0.20441,-0.9367 0.48674,-1.81817 0.62739,-1.95882 l 0.25573,-0.25573 5.50243,-0.0256 c 3.02634,-0.014 8.53853,0.034 12.24931,0.10674 l 6.74687,0.13229 -1.3229,0.82688 c -1.81721,1.13583 -5.44908,4.35536 -6.30269,5.58712 l -0.70314,1.01465 -0.008,35.05182 -0.009,35.051809 0.52744,1.09171 0.52747,1.09171 0.99957,0.76579 c 1.41274,1.08231 2.93268,2.00756 4.24073,2.58152 1.16523,0.51128 1.46582,0.9405 0.66146,0.94451 -0.9986,0.005 -32.00139,0.008 -32.82395,0.003 l -0.87551,-0.005 0.16352,-0.26458 c 0.0899,-0.14552 0.36486,-0.26568 0.61093,-0.26701 0.69592,-0.004 5.95916,-2.22249 6.95996,-2.93397 0.49268,-0.35024 1.1339,-0.76854 1.42495,-0.92954 l 0.52916,-0.29274 0.0677,-22.130039 0.0677,-22.13004 h -0.2661 c -0.14635,0 -0.26683,0.20836 -0.26772,0.46303 -10e-4,0.283548 -3.53293,10.037293 -3.95702,11.57552 -0.24631,0.8934 -1.03068,3.16588 -1.36985,3.96875 -0.31918,0.75553 -3.66118,10.69125 -3.91582,11.64166 -0.54977,2.052079 0.20381,-0.9119 -5.6063,16.470319 -1.28549,3.84585 -1.81813,4.83308 -1.81813,3.36984 0,-0.91519 -0.24262,-0.60006 -1.0855,-3.70057 -0.61652,-1.82508 -3.01954,-12.574133 -4.26545,-10.084799 -0.38428,0.78352 -1.25176,2.28744 -1.92774,3.34204 l -1.22906,1.91746 -2.33167,2.360709 -2.33167,2.3607 0.61964,0.73641 c 0.67742,0.80507 4.01126,2.81697 6.00202,3.62209 2.77887,1.12386 2.12402,1.16894 -15.00884,1.03297 l -15.05128,-0.11943 -0.28221,-0.28546 -0.2822,-0.28545 0.46302,-0.26125 c 0.25466,-0.14369 0.46302,-0.3744 0.46302,-0.51269 v -0.2518 h -0.79196 c -0.23218,0 -7.3903,-0.10394 -16.80661,-12.829769 l -2.32864,-3.14707 -0.76813,0.91082 c -0.42247,0.50095 -1.58405,1.98238 -2.5813,3.29206 l -1.81317,2.38125 -3.30627,3.241149 c -1.81845,1.78263 -3.44745,3.24115 -3.62,3.24115 -0.17255,0 -0.629765,0.22301 -1.016025,0.49558 -2.77965,1.96146 -14.30788,5.61556 -22.92731,2.50413 -1.01864,-0.3677 -2.33114,-0.79023 -2.91666,-0.93896 l -1.06459,-0.27041 -2.24271,1.05055 -2.2427,1.05055 -1.98438,0.29433 -1.98437,0.29433 -44.582284,0.0476 c -24.520261,0.0262 -44.750958,0.0301 -44.957104,0.009 l -0.374811,-0.0386 1.036269,-0.94123 c 0.569949,-0.51768 0.917208,-0.89863 0.771687,-0.84654 -0.983201,0.35189 -3.288829,1.54385 -3.430873,1.77368 l -0.172232,0.27869 h -4.358508 -4.358509 l -0.974417,-0.40715 c -1.437577,-0.60066 -1.818395,-1.80238 -1.082784,-3.41687 l 0.307053,-0.67391 h 0.566072 c 0.31134,0 0.698573,0.1325 0.860519,0.29445 l 0.294446,0.29444 0.287637,-0.17777 c 0.686826,-0.42448 0.0993,-2.17698 -2.311013,-6.893409 -0.803477,-1.57222 -3.63374,-5.44182 -5.630958,-7.69877 -0.785226,-0.88734 -2.342969,-2.67328 -3.461651,-3.96875 -1.118683,-1.29547 -2.531617,-2.83165 -3.139855,-3.41373 l -1.105886,-1.05834 0.158556,8.59896 c 0.08721,4.72943 0.160687,9.70324 0.163291,11.052909 l 0.0047,2.45394 0.595313,0.2571 c 0.327422,0.1414 1.42875,0.79452 2.447395,1.45136 1.018647,0.65685 2.536694,1.55196 3.373439,1.98912 0.836745,0.43717 1.521354,0.85267 1.521354,0.92334 0,0.0707 -6.853121,0.12848 -15.229157,0.12848 h -15.229162 l 0.145407,-0.23527 c 0.07997,-0.1294 0.473954,-0.31652 0.875511,-0.41582 0.401557,-0.0993 1.9428,-0.75977 3.424985,-1.46773 l 2.694879,-1.28719 0.395062,-0.6121 0.395063,-0.6121 -0.04723,-24.300009 -0.04723,-24.30001 -1.058333,-0.40497 c -0.582083,-0.22273 -1.570915,-0.46234 -2.197403,-0.53248 l -1.139071,-0.12751 -0.528422,0.47822 c -0.290632,0.26302 -1.080679,1.40662 -1.75566,2.54134 l -1.227237,2.06313 -3.45527,0.004 c -3.670672,0.004 -16.377364,0.29704 -16.481841,0.37953 -0.03409,0.0269 -0.06793,9.32704 -0.07519,20.66693 l -0.0132,20.617979 1.247623,1.08235 c 0.686193,0.59529 2.356313,1.65894 3.711379,2.36368 l 2.463756,1.28133 1.088881,1.29135 c 0.598884,0.71024 1.036132,1.3441 0.971663,1.40857 -0.149349,0.14934 -30.109284,0.28664 -30.257144,0.13865 z M 11.922301,103.06103 C 12.052996,94.896611 11.699786,72.713281 11.210895,58.381341 l -0.164791,-4.8309 -1.617949,-1.15228 c -1.667847,-1.18782 -4.370414,-2.66124 -4.550665,-2.48099 -0.05609,0.0561 0.402237,0.46359 1.018496,0.90557 l 1.12047,0.8036 0.778834,1.95649 0.778835,1.95649 0.112236,3.06858 0.112237,3.06858 -0.450562,0.1729 c -0.247808,0.0951 -1.082222,0.24714 -1.854252,0.33787 l -1.403692,0.16498 -0.293589,-1.36896 c -0.161474,-0.75293 -0.293589,-1.55026 -0.293589,-1.77184 0,-0.32358 -1.250856,-2.74607 -1.417939,-2.74607 -0.02461,0 -0.697902,-0.24365 -1.496213,-0.54145 l -1.451473,-0.54145 -3.770313,-0.15767 -3.770312,-0.15767 v 11.15927 11.15928 l 1.256771,-0.13473 c 0.691224,-0.0741 3.459427,-0.2603 6.151562,-0.41377 2.692136,-0.15346 5.527617,-0.32726 6.301069,-0.3862 l 1.406276,-0.10718 -0.175048,0.84255 c -0.09628,0.46341 -0.352966,1.19975 -0.570421,1.63631 -0.217454,0.43656 -0.563524,1.34503 -0.769042,2.01882 -0.495267,1.62372 -0.660169,1.72076 -3.282417,1.93176 -2.813848,0.22641 -7.728235,1.06232 -9.128125,1.55265 l -1.058333,0.37069 -0.06967,8.90315 -0.06967,8.903139 h 5.651054 5.651054 l 0.403336,-0.46302 c 0.221834,-0.25466 0.469431,-0.76068 0.550215,-1.12448 0.08078,-0.3638 0.461553,-1.494899 0.846154,-2.513539 0.3846,-1.01865 0.805298,-2.19105 0.934885,-2.60533 0.248122,-0.79325 0.731129,-1.49571 1.028432,-1.49571 0.307441,0 2.322114,1.95964 2.63425,2.56229 l 0.299326,0.57792 -1.33e-4,2.597079 -1.34e-4,2.59708 -0.547335,1.44007 c -0.301034,0.79203 -0.777224,1.76291 -1.0582,2.15751 -1.01185,1.42101 -0.477052,1.12996 1.209347,-0.65816 l 1.719372,-1.82308 z m 31.063204,2.81527 1.21737,-1.38907 0.29062,-1.05833 0.29061,-1.05833 -0.16772,-7.805209 c -0.0923,-4.29287 -0.28837,-11.19849 -0.43582,-15.34583 -0.14746,-4.14735 -0.29486,-11.3132 -0.32757,-15.92413 l -0.0595,-8.3835 -0.75868,-0.79155 c -1.582393,-1.65093 -2.799013,-1.74351 -2.025052,-0.1541 l 0.508319,1.0439 0.179463,3.18058 0.17946,3.18058 -0.364663,0.29553 c -0.200565,0.16253 -0.963503,0.37594 -1.695417,0.47424 l -1.330751,0.17873 -0.43321,-1.27358 c -0.238266,-0.70047 -0.504125,-1.59792 -0.590798,-1.99433 -0.08667,-0.39641 -0.462136,-1.16952 -0.834363,-1.71803 l -0.676776,-0.99728 -1.174759,-0.46145 -1.174758,-0.46145 -4.120039,-0.17765 -4.120039,-0.17765 0.169212,11.08838 0.169212,11.08838 1.903077,-0.0751 c 1.046692,-0.0413 3.391358,-0.1851 5.210368,-0.31954 1.819011,-0.13444 4.319324,-0.27516 5.556251,-0.3127 l 2.248958,-0.0683 -0.09085,0.65239 c -0.04997,0.35881 -0.312126,1.18817 -0.582571,1.84301 -0.270444,0.65485 -0.62078,1.69544 -0.778524,2.31244 l -0.286808,1.12182 -0.585831,0.12171 c -0.322207,0.0669 -1.538331,0.19297 -2.702497,0.28006 -2.630142,0.19678 -6.373236,0.83607 -8.466667,1.44605 l -1.5875,0.46256 0.04601,2.75008 c 0.02531,1.51254 0.05507,5.51828 0.06615,8.90164 l 0.02013,6.151559 h 5.779033 5.779033 l 0.723373,-1.91823 c 0.397855,-1.055029 0.885651,-2.334949 1.08399,-2.844269 0.19834,-0.50932 0.51125,-1.40229 0.695357,-1.98438 0.184107,-0.58208 0.428679,-1.17062 0.543494,-1.30787 l 0.208754,-0.24953 0.784853,0.58026 c 0.431666,0.31915 0.890276,0.58027 1.019136,0.58027 0.12886,0 0.4611,0.25062 0.73832,0.55694 l 0.50402,0.55695 -0.005,3.47795 -0.005,3.477949 -0.62528,1.19063 c -0.34391,0.65484 -0.85597,1.51804 -1.13791,1.91822 l -0.51263,0.72761 h 0.262157 c 0.144133,0 0.809893,-0.62508 1.479453,-1.38906 z m 44.46427,0.59075 c 0.58209,-0.14108 2.07037,-0.36691 3.3073,-0.50184 1.10964,-0.0436 2.07644,-0.15486 3.0427,-0.66159 0.43657,-0.22894 0.99646,-0.41698 1.24421,-0.41788 0.24774,-9e-4 1.3611,-0.48124 2.47412,-1.06742 l 2.02367,-1.06579 1.728195,-1.5139 c 4.13269,-3.620249 4.68307,-4.368073 5.4346,-5.297843 2.96932,-3.151368 5.39125,-6.492551 7.63045,-10.172456 1.41379,-2.323429 2.78634,-4.95469 3.20689,-5.75505 2.61194,-4.970952 9.47316,-16.161933 19.02915,-17.81982 l 2.02547,-0.35139 1.6787,0.10272 c 7.81814,0.47839 14.16829,7.09634 15.56014,16.2164 l 0.30285,1.98438 -0.16444,1.98437 c -0.0904,1.09141 -0.33941,2.57969 -0.55326,3.30729 l -0.38882,1.32292 0.0757,7.48551 0.0757,7.485509 0.81723,-0.60635 c 0.44947,-0.33348 1.62351,-1.528549 2.60895,-2.655699 l 1.73192,-2.168956 1.48575,-2.461214 1.38109,-2.59577 0.0448,-0.65381 c 0.0252,-0.366958 0.16798,-0.90859 0.37329,-1.20171 0.36753,-0.52473 1.25683,-5.622906 1.52538,-7.12543 0.26855,-1.502524 0.22435,-1.016643 0.26637,-1.85208 0.042,-0.835437 0.009,-1.817361 -0.13321,-3.145 -0.14233,-1.327639 -0.72253,-4.0649 -0.82894,-4.7925 -0.10642,-0.7276 -0.48013,-1.95152 -0.83047,-2.71982 -0.35035,-0.7683 -0.63699,-1.5072 -0.63699,-1.642 0,-0.30469 -1.17546,-2.30853 -2.74659,-4.6822 l -1.194,-1.8039 -2.0646,-2.01552 c -6.54986,-6.284367 -12.05477,-7.462578 -20.45792,-6.70685 -6.24362,0.468922 -9.96657,3.147143 -14.17713,7.36594 -1.90645,1.91018 -4.0223,4.16535 -4.70189,5.0115 -0.67959,0.84615 -1.35452,1.67959 -1.49984,1.85209 -1.27522,1.5137 -4.75178,6.0823 -4.75178,6.24438 0,0.11329 -0.23813,0.48055 -0.52917,0.81612 -0.29104,0.33558 -0.52917,0.75593 -0.52917,0.93413 0,0.1782 -0.19099,0.48251 -0.42444,0.67625 -0.23344,0.19374 -0.5362,0.59527 -0.67281,0.89229 -0.34677,0.75395 -0.74378,1.3936 -1.81316,2.92129 -0.50933,0.7276 -1.04511,1.53101 -1.19063,1.78535 -1.9641,3.432775 -11.904595,19.313739 -25.558605,15.1695 -1.8582,-0.56401 -3.65433,-1.55444 -5.34891,-2.94951 l -1.53643,-1.26487 -0.9098,-1.37067 c -0.50039,-0.75387 -0.9098,-1.45247 -0.9098,-1.55244 0,-0.19692 -1.08217,-1.79625 -1.36168,-2.01242 -0.0941,-0.0728 -0.30969,-0.66807 -0.47912,-1.32292 -0.16944,-0.65484 -0.46782,-1.66687 -0.66308,-2.24896 -0.19525,-0.58208 -0.49074,-2.01083 -0.65663,-3.175 l -0.30161,-2.11666 0.26481,-2.01472 c 0.14565,-1.10809 0.45627,-2.53684 0.69026,-3.175 0.234,-0.63815 0.49348,-1.39841 0.57663,-1.68945 0.0832,-0.29104 0.44787,-0.92839 0.81049,-1.41634 l 0.6593,-0.88717 -0.30559,-1.85045 c -0.56221,-3.404254 -2.8867,-6.112402 -3.90298,-7.15698 -0.48487,-0.49837 -1.15163,-0.62116 -1.15163,-0.21207 0,0.13803 -0.31097,0.58451 -0.69103,0.99219 -6.71191,7.199577 -10.45457,24.114851 1.48131,37.61538 l 1.72325,1.949139 c 2.06718,1.1905 3.8329,2.78809 6.01927,3.64936 2.89175,1.41752 9.07767,2.89458 12.76614,2.10536 z m 49.278645,-1.93221 1.12448,-1.08382 v -2.85533 -2.855329 l -0.33073,-0.0169 c -4.76952,-0.243621 -8.63404,-3.43975 -10.15998,-4.89836 -1.66006,-1.5868 -8.40311,-11.08625 -8.42131,-11.86374 -0.003,-0.1334 -0.14405,-0.28866 -0.31318,-0.34504 l -0.30749,-0.1025 -1.7812,3.12316 c -0.97965,1.71774 -2.18074,3.81921 -2.66906,4.66993 -1.11926,1.94987 -1.1751,1.64304 0.76549,4.2066 5.9396,7.846349 14.46138,13.024399 17.92579,13.485689 l 0.66147,0.0881 -0.0603,0.30699 -0.0603,0.307 1.25096,-0.54131 1.25095,-0.54132 z m -227.740091,1.4492 c 0,-0.12264 -0.544383,-0.50297 -1.209739,-0.84518 l -1.209739,-0.62219 -1.436095,-1.55115 -1.436094,-1.55116 -0.03377,-4.416689 c -0.01857,-2.42918 -0.06,-4.65481 -0.09207,-4.94585 -0.03207,-0.29104 -0.137348,-12.79261 -0.233955,-27.78125 l -0.175648,-27.25209 0.286129,-1.05833 c 0.157371,-0.58208 0.352558,-1.35599 0.433748,-1.71979 0.08119,-0.3638 0.386494,-0.92422 0.678452,-1.24536 l 0.530834,-0.58391 1.35366,-0.26833 c 0.744513,-0.14759 4.866004,-0.3745 9.158869,-0.50425 l 7.805209,-0.23592 6.482291,0.31097 6.482291,0.31096 2.210677,1.23781 c 1.215873,0.6808 2.697844,1.59608 3.29327,2.03396 0.595426,0.43788 1.315715,0.79615 1.600643,0.79615 h 0.518051 l -0.437882,-0.48385 c -0.240835,-0.26612 -0.437882,-0.59716 -0.437882,-0.73564 0,-0.79449 -3.305194,-7.78024 -4.137272,-8.74441 l -0.492937,-0.57118 -11.377083,0.23404 c -10.643491,0.21895 -16.680558,0.18624 -30.489897,-0.1652 l -5.61906,-0.143 0.1534,0.39976 c 0.0844,0.21986 0.38183,0.47225 0.66103,0.56087 0.27919,0.0886 0.68491,0.50395 0.90159,0.92297 l 0.39398,0.76186 -0.004,20.18762 -0.004,20.18762 -0.24539,4.49792 c -0.13496,2.47385 -0.32039,9.97479 -0.41206,16.66875 l -0.16667,12.170829 -0.28079,0.92604 c -0.15444,0.50933 -0.61705,1.4305 -1.02802,2.04706 l -0.74723,1.12102 9.05069,0.0732 c 4.977882,0.0403 9.199521,0.10134 9.381422,0.13575 0.181901,0.0344 0.33073,-0.0378 0.33073,-0.16043 z m 96.437395,-0.0416 h 1.408697 l 0.438181,-1.25677 0.438181,-1.25677 0.12468,-1.98437 c 0.06857,-1.09141 0.168912,-2.430859 0.222972,-2.976569 l 0.09829,-0.99218 H 7.91077 c -0.135275,0 -0.364528,0.32742 -0.50945,0.7276 -0.144922,0.40018 -0.367517,0.96573 -0.494656,1.25677 -0.127138,0.29104 -0.467692,1.124479 -0.756786,1.852079 l -0.525626,1.32292 -0.992288,0.50141 -0.992289,0.50141 -3.074111,0.17792 c -1.690761,0.0979 -4.800517,0.11035 -6.910569,0.0278 l -3.836458,-0.15017 -0.06746,-25.569419 -0.06746,-25.56943 0.60258,-0.15124 c 0.331419,-0.0832 1.671463,-0.0388 2.977874,0.0986 1.306412,0.1374 3.458889,0.25194 4.783283,0.25452 l 2.407989,0.005 1.296178,0.66906 1.296178,0.66906 1.125559,1.24315 1.12556,1.24316 0.439526,1.19664 c 0.241739,0.65815 0.55417,1.3157 0.694291,1.46122 L 6.6874,59.508431 6.524379,57.391761 C 6.34043,55.003361 5.836402,53.342911 4.86608,51.928731 l -0.662199,-0.96512 -1.107258,-0.27204 -1.107258,-0.27205 -12.633854,-0.18931 -12.633855,-0.18931 v 0.25107 c 0,0.13809 0.45196,0.45048 1.004355,0.6942 0.552396,0.24371 1.321153,0.77378 1.708349,1.17793 l 0.703994,0.73481 0.14753,8.72872 c 0.08114,4.80079 0.264501,12.06246 0.407466,16.13705 0.142964,4.07458 0.310645,11.61162 0.372624,16.74898 l 0.112689,9.340659 -0.773295,0.88073 c -0.425312,0.48441 -0.773295,0.95309 -0.773295,1.04152 0,0.15069 23.269176,0.37568 24.032578,0.23238 0.193803,-0.0364 0.986282,-0.0661 1.761066,-0.0661 z m 35.212631,-1.85208 0.572651,-1.71979 0.115986,-2.447399 c 0.12217,-2.57811 -0.03364,-3.00824 -0.575082,-1.5875 -0.180237,0.47294 -0.480993,1.21708 -0.668347,1.65365 -0.187355,0.436559 -0.520638,1.230969 -0.74063,1.765359 l -0.399986,0.9716 -0.648738,0.42507 -0.648738,0.42507 -2.217632,0.25496 c -2.59264,0.29808 -5.545909,0.32397 -9.693415,0.085 l -2.977866,-0.17158 0.06745,-25.690229 0.06745,-25.69023 1.984375,0.007 c 2.208863,0.007 7.868981,0.34284 9.183006,0.54448 l 0.848631,0.13023 1.330831,1.05196 1.330831,1.05196 0.80166,1.38556 c 0.440913,0.76205 0.933315,1.8936 1.094227,2.51453 0.160911,0.62094 0.417218,1.20602 0.56957,1.30018 l 0.277004,0.1712 -0.188303,-0.49071 c -0.103566,-0.26989 -0.296949,-1.62888 -0.429739,-3.01997 -0.366969,-3.84431 -1.048005,-5.40661 -2.737759,-6.28042 l -0.753583,-0.38969 -13.071521,-0.15092 c -7.189337,-0.083 -13.071522,-0.0865 -13.071522,-0.008 0,0.0788 0.600343,0.52849 1.334095,0.99933 l 1.334094,0.85609 0.351866,0.69285 0.351866,0.69285 0.160477,2.77812 c 0.08826,1.52797 0.227902,9.14797 0.310311,16.93334 0.08241,7.78536 0.199499,14.51239 0.260201,14.94896 0.0607,0.43656 0.136325,4.20721 0.16805,8.37921 l 0.05768,7.585469 -0.709113,0.92969 c -0.390011,0.51133 -0.709151,0.96741 -0.709198,1.01349 -4.7e-5,0.0461 6.096581,0.0243 13.548062,-0.0485 l 13.548148,-0.13229 z m 114.033315,0.40462 -1.73752,-1.71205 -0.003,-5.365559 c -0.004,-7.19272 -0.24378,-21.67593 -0.38961,-23.50053 l -0.11719,-1.46624 -0.69184,-1.56435 c -0.81326,-1.83893 -1.86449,-3.27492 -3.53917,-4.83452 l -1.21258,-1.12925 -1.91997,-0.94057 c -1.0807,-0.554755 -2.19839,-0.848054 -3.37344,-1.09057 l -1.45347,-0.15001 -0.006,19.81462 -0.006,19.814619 -0.48845,1.05833 c -0.26866,0.58208 -0.80182,1.34698 -1.18483,1.69977 -0.383,0.35279 -0.69635,0.73974 -0.69635,0.85989 v 0.21847 h 9.27815 9.27814 z m 48.08884,0.58757 -1.08382,-1.12448 -0.55876,-1.29041 -0.55877,-1.2904 V 66.054101 30.730941 l 0.54827,-0.88714 c 0.30156,-0.48793 1.4,-1.66448 2.44097,-2.61456 l 1.8927,-1.72741 -8.85713,0.0698 -8.85711,0.0698 -0.0813,0.66146 c -0.0447,0.3638 -0.31872,1.49489 -0.60887,2.51354 -0.29014,1.01864 -0.74881,2.62599 -1.01929,3.57187 -0.27047,0.94589 -0.87379,3.26761 -1.34073,5.15938 -0.46693,1.89177 -0.95391,3.55269 -1.08218,3.69094 -0.12827,0.13824 -0.23322,0.53933 -0.23322,0.89131 0,0.35197 -0.22756,1.36996 -0.50573,2.26218 -0.27815,0.89223 -0.63587,2.15802 -0.79496,2.81286 -0.79938,3.29059 -2.43095,9.35541 -2.58301,9.60144 -0.0951,0.15381 -0.26125,0.70555 -0.36931,1.22609 -0.22015,1.060412 -6.91614,26.357698 -7.11459,26.61101 -0.11403,0.14552 -0.28873,0.82736 -0.38826,1.51519 -0.0995,0.68783 -0.29397,1.32046 -0.43211,1.40583 l -0.25117,0.15523 -0.0944,-0.3475 c -0.0519,-0.19112 -0.22104,-0.82375 -0.37577,-1.40583 -0.26533,-0.99815 -0.611,-2.14224 -1.8786,-6.21771 -0.62587,-2.01226 -2.5719,-8.5807 -3.86945,-13.06058 -0.5,-1.72629 -1.02934,-3.51223 -1.17632,-3.96875 -0.14698,-0.45652 -0.74923,-2.43739 -1.33834,-4.40192 -0.58911,-1.96453 -1.24571,-4.10766 -1.45912,-4.7625 -0.2134,-0.65484 -0.55748,-1.78594 -0.76461,-2.51354 -0.20712,-0.7276 -0.62971,-2.15635 -0.93908,-3.175 -0.30936,-1.01865 -0.78474,-2.62599 -1.05639,-3.57188 -0.47521,-1.65465 -0.88552,-3.01714 -2.11152,-7.01145 -0.31266,-1.01865 -0.7873,-2.62599 -1.05474,-3.57188 -0.26743,-0.94588 -0.75006,-2.55323 -1.0725,-3.57187 -0.32244,-1.01865 -0.73248,-2.4474 -0.91117,-3.175 l -0.32491,-1.32292 -8.42641,0.009 -8.42642,0.009 -0.0956,0.28665 -0.0956,0.28665 1.00242,0.16267 c 0.55133,0.0895 1.44847,0.40307 1.99364,0.69691 0.54518,0.29383 1.17026,0.53424 1.38907,0.53424 h 0.39783 v 11.5878 11.58779 l 2.05052,0.31795 c 4.03126,0.62508 6.12887,1.0686 6.86215,1.45097 1.26205,0.65808 2.72943,1.24924 3.10086,1.24924 h 0.35391 l -0.10633,-4.29427 -0.10632,-4.29427 0.23563,0.25938 c 0.1296,0.14265 0.44794,1.15234 0.70745,2.24375 0.25951,1.0914 0.69286,2.61392 0.96301,3.38336 0.27017,0.76944 0.49119,1.61751 0.49119,1.8846 0,0.26708 0.2448,1.03901 0.54399,1.71538 l 0.544,1.22978 2.37675,2.42476 2.37675,2.42476 1.48049,2.48105 c 1.69138,2.83445 2.61381,4.97982 3.6363,8.45726 l 0.71669,2.43741 0.21243,2.72197 c 0.11684,1.49708 0.1709,2.84102 0.12013,2.98654 -0.0508,0.14552 -0.20332,1.47553 -0.339,2.95557 -2.17255,9.178743 -0.55088,9.701792 2.09857,19.732449 0.44211,1.71137 0.54853,1.62184 1.41521,-1.19062 1.61139,-4.48441 2.71684,-9.152298 4.23898,-13.620689 0.20417,-0.54865 0.69279,-2.0691 1.08583,-3.37879 0.39304,-1.30969 0.92659,-3.03609 1.18567,-3.83646 0.81607,-2.52113 1.52566,-4.78252 2.65671,-8.46667 1.68698,-5.667845 3.54276,-11.282947 5.28547,-16.93333 0.60446,-1.96453 1.32453,-4.28625 1.60016,-5.15937 0.27564,-0.87313 0.69067,-2.26991 0.92229,-3.10397 0.23161,-0.83405 0.52861,-1.58289 0.65998,-1.66409 l 0.23887,-0.14762 0.0103,28.91617 0.0104,28.916169 -0.99417,1.08276 c -0.5468,0.59552 -1.38113,1.23505 -1.85407,1.42117 -0.47294,0.18612 -0.8599,0.44302 -0.8599,0.57088 v 0.23249 h 9.84468 9.84467 z m -254.408383,0.23754 c -0.541839,-0.33321 -1.226448,-0.82419 -1.521355,-1.09108 l -0.536193,-0.48525 V 79.482801 55.221841 l 0.785447,-1.08428 c 0.431996,-0.59636 1.019481,-1.20953 1.305523,-1.36262 l 0.520075,-0.27833 3.126249,0.0139 3.126248,0.0139 1.877885,0.33644 1.877886,0.33644 1.032531,0.61723 c 1.365005,0.81598 2.62861,2.00916 3.524276,3.32786 l 0.729423,1.07394 0.46486,1.71733 0.46486,1.71733 -0.130993,1.70665 c -0.07204,0.93865 -0.351151,2.62848 -0.620235,3.75516 l -0.489243,2.04851 -2.248958,1.77762 c -1.236927,0.97769 -3.035306,2.37757 -3.996399,3.11086 -0.961092,0.73329 -2.50237,1.97251 -3.425063,2.75384 -0.922692,0.78133 -2.190173,1.6403 -2.816622,1.90883 -1.521421,0.65215 -1.532051,0.62514 1.57298,3.99761 4.501552,4.88927 8.956391,10.64347 10.304833,13.31047 1.696779,3.35595 2.066143,4.162959 2.580605,5.638289 l 0.582188,1.66955 -0.443232,0.67646 -0.443231,0.67646 -1.029297,0.43212 c -0.566113,0.23766 -1.030507,0.52141 -1.031987,0.63055 l -0.0027,0.19844 h 4.325928 4.325927 l 1.164177,-0.84356 c 0.640297,-0.46396 1.402302,-0.96997 1.693344,-1.12448 0.291041,-0.1545 1.332838,-0.81218 2.315104,-1.46151 l 1.785938,-1.1806 v -1.04279 -1.042799 l -2.460089,-3.06827 c -1.353048,-1.68756 -3.388247,-4.23446 -4.522663,-5.6598 -1.134416,-1.42534 -3.331361,-3.96882 -4.882099,-5.65218 -6.552038,-7.1124 -6.220166,-6.18178 -3.067056,-8.60051 3.981748,-3.05438 5.816589,-4.62461 6.684679,-5.72067 l 0.804139,-1.0153 0.414252,-1.78623 c 0.67441,-2.90799 0.205821,-6.03943 -1.417675,-9.47388 l -0.790467,-1.67221 -1.797657,-1.85716 -1.797656,-1.85715 -1.424674,-0.75843 c -0.78357,-0.41713 -1.855133,-0.86571 -2.38125,-0.99683 -1.808157,-0.45064 -29.101663,-1.0956 -29.737371,-0.70271 l -0.308049,0.19038 0.188479,0.18848 0.18848,0.18848 -0.264577,0.3188 -0.264578,0.31879 1.165422,0.15974 c 0.640982,0.0879 1.594512,0.36436 2.118956,0.61445 l 0.953535,0.45471 v 24.98904 24.989029 l -0.59151,0.95728 c -0.32533,0.5265 -0.890877,1.2214 -1.256771,1.54422 l -0.665261,0.58695 7.672917,1e-4 7.672917,1.1e-4 z m 118.454148,0.21592 c 0.85821,-0.22353 2.08437,-0.63821 2.72481,-0.9215 l 1.16442,-0.51508 -1.80932,-1.4564 c -2.09898,-2.07613 -3.83843,-0.52719 -6.04266,0.86427 l -3.83645,0.0931 -3.83646,0.0931 -0.0396,-24.654169 -0.0397,-24.65417 1.73793,-0.18612 c 0.95586,-0.10237 2.71547,-0.11098 3.91025,-0.0191 5.07305,-0.05538 10.10766,4.624445 12.15212,11.01673 0.39561,1.23693 0.88483,2.66568 1.08715,3.175 0.20233,0.50932 0.56752,2.23573 0.81154,3.83646 l 0.44368,2.91041 -5.9e-4,3.175 -5.8e-4,3.175 -0.44473,3.04271 c -0.24459,1.67349 -0.57295,3.43599 -0.72968,3.91666 l -0.28497,0.87394 0.16823,0.67027 c 0.20587,0.82026 2.26834,3.06561 3.75735,4.09051 l 1.09714,0.75518 0.26997,-0.32529 c 0.89486,-1.07824 2.29077,-5.67687 2.94949,-9.71668 l 0.53928,-3.3073 5e-5,-3.34714 5e-5,-3.34715 -0.52869,-3.0925 c -1.23686,-7.23486 -3.94232,-12.92981 -7.86994,-16.56609 l -1.57899,-1.46187 -2.11633,-1.10103 c -1.16397,-0.60557 -2.8183,-1.30096 -3.67629,-1.54531 l -1.55997,-0.44427 -12.17083,-0.0873 -12.170822,-0.0873 0.661459,0.28851 c 0.363793,0.15868 1.246793,0.54356 1.962223,0.8553 l 1.30076,0.5668 0.46539,1.05865 0.46539,1.05864 0.0238,7.9375 c 0.0131,4.36562 0.14667,15.42683 0.29692,24.58046 l 0.27318,16.642949 -0.27714,0.27715 c -0.15244,0.15243 -0.27715,0.48153 -0.27715,0.73133 v 0.45418 l -0.72761,0.54286 -0.7276,0.54285 10.4616,0.008 10.4616,0.008 z m -5.63252,-3.54576 2.56355,-0.22915 1.07447,-0.60388 c 1.30969,-0.73609 1.30825,-0.6717 0.0504,-2.257819 -4.21781,-5.31834 -6.78051,-12.18614 -7.09666,-19.01842 l -0.12243,-2.64583 0.57043,-2.51354 c 1.39487,-6.14645 3.58217,-11.01663 6.40895,-14.27 l 1.0193,-1.17313 -0.0783,-0.40649 -0.0783,-0.40648 -0.92394,-0.27505 c -0.50816,-0.15128 -1.19234,-0.42718 -1.52038,-0.61311 l -0.59644,-0.33807 -2.44627,0.0761 -2.44626,0.0761 -0.0683,22.09271 c -0.0376,12.15099 -0.0115,22.241539 0.0578,22.423439 0.14646,0.38392 0.23899,0.38602 3.63238,0.0827 z M 104.21195,80.734921 C 106.50632,76.517039 93.563755,60.092154 82.994975,63.066081 l -1.27981,0.36012 0.14249,0.55447 c 0.0784,0.30497 0.50962,1.62604 0.95833,2.93573 0.44871,1.30969 0.92717,3.21469 1.06325,4.23333 0.13608,1.01865 0.37004,2.26802 0.51992,2.77638 l 0.2725,0.9243 v 3.20862 3.20862 l -0.53792,3.14313 c -0.73016,4.26645 -1.94147,8.407 -3.06807,10.4874 l -0.39515,0.72969 0.34693,0.11883 c 0.83323,0.28539 2.13839,0.308764 5.1208,0.28239 4.9267,-0.04357 11.18498,-2.630157 18.073705,-15.29417 z m 33.90553,-1.25081 v -16.66875 h -0.48684 c -5.76618,0 -16.21318,12.143541 -17.65365,16.440804 v 0.64756 0.64756 l 1.62242,2.43471 c 5.84459,8.770762 8.05695,11.171676 13.34307,12.637406 0.94589,0.26227 2.04723,0.48869 2.4474,0.50316 l 0.7276,0.0263 z m -64.982305,-0.26458 0.0271,-5.42396 -0.49036,-1.85209 c -0.64983,-2.45438 -0.72799,-2.53578 -1.12162,-1.16811 -0.1849,0.64246 -0.54959,1.82296 -0.81041,2.62332 l -0.47422,1.45521 -0.007,3.04271 -0.007,3.04271 0.57267,1.98437 c 0.31497,1.09141 0.77683,2.46063 1.02636,3.04271 l 0.45369,1.05833 0.40174,-1.19062 0.40174,-1.19063 z m -74.849969,2.66178 c 0.873125,-0.15261 2.123281,-0.27948 2.778125,-0.28194 l 1.190625,-0.004 0.727604,-1.70368 c 0.400182,-0.93703 0.727604,-1.89053 0.727604,-2.11891 v -0.41523 l -0.611257,0.11084 c -0.336192,0.061 -2.509083,0.19575 -4.828646,0.29952 -5.067913,0.22673 -4.614264,-0.0173 -4.614264,2.48193 0,2.65625 -0.407874,2.51249 4.630209,1.63193 z m 32.54375,-0.003 c 0.727605,-0.1353 1.998885,-0.2531 2.825068,-0.26177 l 1.502151,-0.0158 0.54837,-0.69714 c 0.301603,-0.38343 0.54837,-0.87539 0.54837,-1.09325 0,-0.21786 0.239611,-0.78381 0.532468,-1.25766 l 0.532468,-0.86156 -0.358154,-0.13743 c -0.196984,-0.0756 -1.954642,-0.0345 -3.905905,0.0913 -1.951264,0.12578 -4.179072,0.23385 -4.950686,0.24015 l -1.402933,0.0115 0.07721,2.27944 0.07721,2.27943 1.325724,-0.16557 c 0.729148,-0.0911 1.921036,-0.27628 2.64864,-0.41159 z m -79.563277,-4.57701 c 1.681878,-1.22698 6.091386,-4.7549 8.390359,-6.71287 l 2.38125,-2.02805 0.583148,-2.14491 0.583147,-2.1449 -0.141845,-1.7198 c -0.182554,-2.21338 -0.778652,-3.88706 -1.758795,-4.93821 l -0.780617,-0.83717 -1.623769,-0.74856 -1.623769,-0.74857 -4.101042,-0.086 -4.101042,-0.086 -0.314707,0.51803 -0.314707,0.51802 -0.05599,10.57318 c -0.0308,5.81524 0.02855,10.70996 0.131884,10.87716 l 0.187876,0.30399 h 0.8713 0.871299 z m 160.128901,-8.17767 v -0.75347 l -1.95357,-2.5865 -1.95355,-2.58649 -2.87163,-2.73191 C 89.431185,46.019398 73.951245,53.611819 75.829175,55.044181 c 1.05093,0.80159 3.0548,3.28713 4.09383,5.07788 l 0.67531,1.16388 4.48406,0.0371 c 7.69616,-0.104167 11.44971,2.74601 16.206815,8.93579 0.91772,1.21759 2.13811,2.83539 2.71198,3.59509 0.57387,0.7597 1.0434,1.478 1.0434,1.59621 0,0.38961 1.14982,1.65272 1.50449,1.65272 h 0.34759 z m -185.874958,-14.5765 c 1.869215,-2.28531 2.826055,-3.63583 2.598318,-3.66737 -0.116547,-0.0161 -3.307528,-0.0749 -7.09107,-0.1305 l -6.879166,-0.10116 -2.910417,-0.35715 -2.910417,-0.35715 -0.301419,0.28922 -0.301419,0.28921 -0.181465,2.4474 -0.181465,2.44739 h 8.727594 8.727593 z"
       id="path1"
       sodipodi:nodetypes="ssscccssccsccccssscsccccsccssccccccccccscsscscccssscsssccssscsscsscssscccssscccssssssssssssssscsssssssssccscsscccccsssccccsscccsssssssssscccssscccsscsscsscsssssccccccccscscccsscsscssssscsscssssscssscccccsccssccsscsscsssssscssscccccsscsssscccccssscssssscccccsssssscccssscscccccsccsscccsscssscccccccssccsssccsscsscccsssscssscccsscscccsssscssssscssccscccsscccssssssssscsssssssssssssscsssssscsscsccsssscsccccccsscscsssscccccccscccssscssccccccccsscssccsscscscccsscssccsccccccsscsssscccccccccsccccccsscsscccccssscssscsssccccsssscccssccccscccssscssscssscccsssscsscccccsscssccccccsssccccccccccsscccssssssssssssscssssssssssssssccccccsscccssscccssssscccsscssssssssssssscccssscccccscccsccccccsscccsscssssssscccsscccssscccssssscssccccssccccccscccsscccccscscccccscssscccsscsscsscccsscsscccsscccsscssccccccccscscsscccsscccccccssccssscccsscsssccscccsssccccssscccsscccccccssccsscccccsssccsccccccccscccsscccccccssccccccccsssccssssccscccccccccccs" />
  </g>
</svg>
